<svg width="120" height="36" viewBox="0 0 120 36" fill="none" xmlns="http://www.w3.org/2000/svg">
<g clip-path="url(#clip0_13549_36098)">
<g clip-path="url(#clip1_13549_36098)">
<g clip-path="url(#clip2_13549_36098)">
<path d="M21.75 10.25H2.25C1.14543 10.25 0.25 11.1454 0.25 12.25V23.75C0.25 24.8546 1.14543 25.75 2.25 25.75H21.75C22.8546 25.75 23.75 24.8546 23.75 23.75V12.25C23.75 11.1454 22.8546 10.25 21.75 10.25Z" fill="#FBF8E6" stroke="black" stroke-opacity="0.2" stroke-width="0.5"/>
<path d="M2.78773 15.9144C2.26459 15.6275 1.66754 15.3967 1 15.2366L1.028 15.1119H3.76498C4.13596 15.1249 4.43699 15.2365 4.53495 15.6307L5.12977 18.4666L5.31198 19.3207L6.97797 15.1119H8.77679L6.10288 21.2775H4.30397L2.78773 15.9144ZM10.1 21.2841H8.39883L9.46285 15.1119H11.1639L10.1 21.2841ZM16.2668 15.2628L16.0354 16.5956L15.8816 16.53C15.5737 16.4052 15.1674 16.2805 14.6144 16.2937C13.9427 16.2937 13.6415 16.5628 13.6345 16.8255C13.6345 17.1144 13.9989 17.3048 14.5939 17.5873C15.574 18.0272 16.0286 18.5656 16.0218 19.2682C16.0081 20.5486 14.846 21.3761 13.0611 21.3761C12.2979 21.3694 11.5628 21.2181 11.1638 21.0476L11.4019 19.662L11.6259 19.7607C12.1789 19.9907 12.5428 20.089 13.222 20.089C13.7118 20.089 14.2369 19.8984 14.2436 19.4849C14.2436 19.2157 14.0199 19.0185 13.3617 18.7165C12.7178 18.4209 11.8568 17.9285 11.8708 17.042C11.8781 15.8404 13.0611 15 14.741 15C15.399 15 15.9312 15.1379 16.2668 15.2628ZM18.5278 19.0975H19.9417C19.8718 18.7889 19.5496 17.3115 19.5496 17.3115L19.4307 16.7796C19.3467 17.0094 19.1999 17.3837 19.2069 17.3706C19.2069 17.3706 18.6678 18.7429 18.5278 19.0975ZM20.6276 15.1119L22 21.284H20.4249C20.4249 21.284 20.2708 20.5748 20.2219 20.3581H18.0378C17.9746 20.5222 17.6808 21.284 17.6808 21.284H15.8958L18.4226 15.624C18.5977 15.2234 18.906 15.1119 19.3118 15.1119H20.6276Z" fill="#1434CB"/>
</g>
</g>
</g>
<g clip-path="url(#clip3_13549_36098)">
<g clip-path="url(#clip4_13549_36098)">
<g clip-path="url(#clip5_13549_36098)">
<path d="M50 10H30C28.8954 10 28 10.8954 28 12V24C28 25.1046 28.8954 26 30 26H50C51.1046 26 52 25.1046 52 24V12C52 10.8954 51.1046 10 50 10Z" fill="#252525"/>
<path d="M37 23C39.7614 23 42 20.7614 42 18C42 15.2386 39.7614 13 37 13C34.2386 13 32 15.2386 32 18C32 20.7614 34.2386 23 37 23Z" fill="#EB001B"/>
<path d="M43 23C45.7614 23 48 20.7614 48 18C48 15.2386 45.7614 13 43 13C40.2386 13 38 15.2386 38 18C38 20.7614 40.2386 23 43 23Z" fill="#F79E1B"/>
<path fill-rule="evenodd" clip-rule="evenodd" d="M40 14C41.2144 14.9122 42 16.3645 42 18.0004C42 19.6362 41.2144 21.0885 40 22.0007C38.7856 21.0885 38 19.6362 38 18.0004C38 16.3645 38.7856 14.9122 40 14Z" fill="#FF5F00"/>
</g>
</g>
</g>
<g clip-path="url(#clip6_13549_36098)">
<g clip-path="url(#clip7_13549_36098)">
<g clip-path="url(#clip8_13549_36098)">
<path d="M78 10H58C56.8954 10 56 10.8954 56 12V24C56 25.1046 56.8954 26 58 26H78C79.1046 26 80 25.1046 80 24V12C80 10.8954 79.1046 10 78 10Z" fill="#016FD0"/>
<path fill-rule="evenodd" clip-rule="evenodd" d="M69.7637 23.3948V17.6934L79.9112 17.7025V19.2774L78.7383 20.5308L79.9112 21.7956V23.4039H78.0386L77.0434 22.3058L76.0553 23.4081L69.7637 23.3948Z" fill="#FFFFFE"/>
<path fill-rule="evenodd" clip-rule="evenodd" d="M70.4414 22.7692V18.3203H74.2137V19.3452H71.6628V20.0409H74.1529V21.0487H71.6628V21.732H74.2137V22.7692H70.4414Z" fill="#016FD0"/>
<path fill-rule="evenodd" clip-rule="evenodd" d="M74.1954 22.7691L76.2827 20.5421L74.1953 18.3203H75.811L77.0865 19.7303L78.3656 18.3203H79.9117V18.3553L77.8689 20.5421L79.9117 22.706V22.7691H78.35L77.0519 21.3449L75.7671 22.7691H74.1954Z" fill="#016FD0"/>
<path fill-rule="evenodd" clip-rule="evenodd" d="M70.2369 12.6328H72.6829L73.5421 14.5837V12.6328H76.5619L77.0827 14.0944L77.6052 12.6328H79.9111V18.3342H67.7246L70.2369 12.6328Z" fill="#FFFFFE"/>
<path fill-rule="evenodd" clip-rule="evenodd" d="M70.7006 13.25L68.7266 17.6952H70.0805L70.4529 16.805H72.4708L72.843 17.6952H74.2306L72.2648 13.25H70.7006ZM70.8702 15.8074L71.4622 14.3924L72.0538 15.8074H70.8702Z" fill="#016FD0"/>
<path fill-rule="evenodd" clip-rule="evenodd" d="M74.2119 17.6951V13.25L76.115 13.2565L77.0943 15.9893L78.0799 13.25H79.9115V17.6951L78.7329 17.7055V14.6522L77.6204 17.6951H76.5446L75.4089 14.6417V17.6951H74.2119Z" fill="#016FD0"/>
</g>
</g>
</g>
<g clip-path="url(#clip9_13549_36098)">
<g clip-path="url(#clip10_13549_36098)">
<g clip-path="url(#clip11_13549_36098)">
<path d="M84.2051 26H88.7229C89.7507 26 90.9819 24.8053 90.9819 23.8667V10H86.464C85.4362 10 84.2051 11.1947 84.2051 13.2V26Z" fill="#047AB1"/>
<path d="M86.769 20.8167C85.9016 20.8168 85.0386 20.7019 84.2051 20.4753V19.302C84.8519 19.6797 85.5912 19.8928 86.3511 19.9207C87.2207 19.9207 87.7064 19.3447 87.7064 18.5553V15.334H89.8524V18.5553C89.8524 19.814 89.1521 20.8167 86.769 20.8167Z" fill="#FBF8E6"/>
<path d="M92.1113 26H96.6292C97.657 26 98.8881 24.8053 98.8881 23.8667V10H94.3703C93.3424 10 92.1113 11.1947 92.1113 13.2V26Z" fill="#D42D06"/>
<path d="M92.1113 16.0791C92.7664 15.4817 93.8959 15.1084 95.7256 15.1937C96.7195 15.2364 97.7586 15.5137 97.7586 15.5137V16.6977C97.1643 16.3583 96.4963 16.1504 95.8047 16.0897C94.4154 15.9724 93.5683 16.7084 93.5683 17.9991C93.5683 19.2897 94.4154 20.0257 95.8047 19.9191C96.4967 19.853 97.1643 19.6416 97.7586 19.3004V20.4737C97.7586 20.4737 96.7195 20.7617 95.7256 20.8044C93.8959 20.8897 92.7664 20.5164 92.1113 19.9191V16.0791Z" fill="#FBF8E6"/>
<path d="M100.018 26H104.535C105.563 26 106.794 24.8053 106.794 23.8667V10H102.277C101.249 10 100.018 11.1947 100.018 13.2V26Z" fill="#67B637"/>
<path d="M105.665 19.2807C105.665 20.134 104.965 20.6673 104.027 20.6673H100.018V15.334H103.666L103.926 15.3447C104.75 15.3873 105.36 15.846 105.36 16.6353C105.36 17.254 104.942 17.7873 104.185 17.9153V17.9473C105.021 18.0007 105.665 18.502 105.665 19.2807ZM102.785 16.1767C102.736 16.1698 102.687 16.1662 102.638 16.166H101.283V17.51H102.785C103.067 17.446 103.304 17.2007 103.304 16.838C103.304 16.4753 103.067 16.23 102.785 16.1767ZM102.954 18.3527C102.894 18.3438 102.834 18.3402 102.773 18.342H101.283V19.8033H102.773L102.954 19.782C103.237 19.718 103.474 19.4407 103.474 19.0673C103.474 18.694 103.248 18.4273 102.954 18.3527Z" fill="#FBF8E6"/>
</g>
</g>
</g>
<defs>
<clipPath id="clip0_13549_36098">
<rect width="24" height="16" fill="white" transform="translate(0 10)"/>
</clipPath>
<clipPath id="clip1_13549_36098">
<rect width="24" height="16" fill="white" transform="translate(0 10)"/>
</clipPath>
<clipPath id="clip2_13549_36098">
<rect width="24" height="16" fill="white" transform="translate(0 10)"/>
</clipPath>
<clipPath id="clip3_13549_36098">
<rect width="24" height="16" fill="white" transform="translate(28 10)"/>
</clipPath>
<clipPath id="clip4_13549_36098">
<rect width="24" height="16" fill="white" transform="translate(28 10)"/>
</clipPath>
<clipPath id="clip5_13549_36098">
<rect width="24" height="16" fill="white" transform="translate(28 10)"/>
</clipPath>
<clipPath id="clip6_13549_36098">
<rect width="24" height="16" fill="white" transform="translate(56 10)"/>
</clipPath>
<clipPath id="clip7_13549_36098">
<rect width="24" height="16" fill="white" transform="translate(56 10)"/>
</clipPath>
<clipPath id="clip8_13549_36098">
<rect width="24" height="16" fill="white" transform="translate(56 10)"/>
</clipPath>
<clipPath id="clip9_13549_36098">
<rect width="23" height="16" fill="white" transform="translate(84 10)"/>
</clipPath>
<clipPath id="clip10_13549_36098">
<rect width="23" height="16" fill="white" transform="translate(84 10)"/>
</clipPath>
<clipPath id="clip11_13549_36098">
<rect width="23" height="16" fill="white" transform="translate(84 10)"/>
</clipPath>
</defs>
</svg>
