<svg width="25" height="17" viewBox="0 0 25 17" fill="none" xmlns="http://www.w3.org/2000/svg">
<g clip-path="url(#clip0_13549_36159)">
<path opacity="0.2" fill-rule="evenodd" clip-rule="evenodd" d="M16.5107 2.07617H1.52313C0.822488 2.07617 0 2.88359 0 3.59961V15.0254C0 15.7414 0.822488 16.5488 1.52313 16.5488H20.5622C21.2628 16.5488 22.0853 15.7414 22.0853 15.0254V9.28965C21.4438 9.86688 20.6514 10.2499 19.8006 10.3941V10.4551C19.8006 10.9578 19.5265 11.2168 19.0391 11.2168H2.28469C1.79729 11.2168 1.52313 10.9578 1.52313 10.4551V9.69336C1.52313 9.19063 1.79729 8.93164 2.28469 8.93164H15.6349C15.1953 8.44435 14.8661 7.8678 14.67 7.24145C14.4739 6.61511 14.4154 5.95377 14.4986 5.30272C14.5817 4.65167 14.8046 4.02628 15.1519 3.46939C15.4992 2.91249 15.9627 2.43724 16.5107 2.07617Z" fill="#565656"/>
<path opacity="0.3" fill-rule="evenodd" clip-rule="evenodd" d="M14.7286 4.36133H0V6.64648H14.5306C14.4027 5.88026 14.4708 5.09411 14.7286 4.36133Z" fill="#565656"/>
<path fill-rule="evenodd" clip-rule="evenodd" d="M19.0389 11.2168C17.6251 11.2168 16.2691 10.655 15.2694 9.65508C14.2697 8.65513 13.708 7.29891 13.708 5.88477C13.708 4.47062 14.2697 3.1144 15.2694 2.11445C16.2691 1.1145 17.6251 0.552734 19.0389 0.552734C20.4528 0.552734 21.8087 1.1145 22.8085 2.11445C23.8082 3.1144 24.3699 4.47062 24.3699 5.88477C24.3699 7.29891 23.8082 8.65513 22.8085 9.65508C21.8087 10.655 20.4528 11.2168 19.0389 11.2168ZM16.9218 3.67578H16.3202L14.8504 4.42227V5.18398L16.0155 4.57461V8.09375H16.9294V3.67578H16.9218ZM18.6734 4.28516C19.1075 4.28516 19.4121 4.52891 19.4121 4.8793C19.4121 5.26016 19.0542 5.52676 18.5363 5.52676H18.3078V6.17422H18.582C19.1303 6.17422 19.5035 6.44844 19.5035 6.84453C19.5035 7.22539 19.1379 7.48438 18.6201 7.48438C18.2393 7.48438 17.8585 7.3625 17.4625 7.12637V7.88809C17.889 8.0709 18.3155 8.16992 18.7343 8.16992C19.732 8.16992 20.4174 7.65957 20.4174 6.9207C20.4174 6.40273 20.0975 5.98379 19.5644 5.81621C20.0214 5.66387 20.3184 5.26016 20.3184 4.80312C20.3184 4.08711 19.6863 3.59961 18.7724 3.59961C18.3604 3.60418 17.9537 3.69229 17.5767 3.85859V4.60508C17.9423 4.39941 18.3155 4.28516 18.6734 4.28516ZM21.9633 5.9457C22.5193 5.9457 22.9077 6.27324 22.9077 6.6998C22.9077 7.14922 22.5193 7.46152 21.9633 7.46152C21.6283 7.46152 21.2779 7.35488 20.92 7.13398V7.91855C21.2932 8.08613 21.674 8.16992 22.0471 8.16992C22.2451 8.16992 22.4279 8.13945 22.6031 8.09375C22.9991 7.44629 23.2275 6.6998 23.2275 5.9L23.2123 5.58008C22.9292 5.41244 22.6045 5.32797 22.2756 5.33633C22.1385 5.33633 21.9938 5.34395 21.8415 5.3668V4.37656H22.9381C22.843 4.13275 22.7258 3.89817 22.5878 3.67578H21.0495V6.0752C21.3541 5.99902 21.6587 5.9457 21.9633 5.9457Z" fill="#565656"/>
</g>
<defs>
<clipPath id="clip0_13549_36159">
<rect width="24.37" height="16" fill="white" transform="translate(0 0.550781)"/>
</clipPath>
</defs>
</svg>
