<svg width="102" height="32" viewBox="0 0 102 32" fill="none" xmlns="http://www.w3.org/2000/svg">
<path d="M11.0912 28.9107C14.4553 28.9107 17.1824 26.2908 17.1824 23.0591C17.1824 19.8273 14.4553 17.2075 11.0912 17.2075C7.72712 17.2075 5 19.8273 5 23.0591C5 26.2908 7.72712 28.9107 11.0912 28.9107Z" fill="#1D1F24"/>
<path fill-rule="evenodd" clip-rule="evenodd" d="M18.8143 23.2182C18.8143 22.9677 18.8307 22.7208 18.8625 22.4786C18.9059 22.1488 18.91 22.1283 18.8383 21.7933C18.1012 18.352 15.7603 15.9742 11.7898 15.5948C11.5605 15.62 11.3275 15.6334 11.0912 15.6334C7.7271 15.6334 5 13.0135 5 9.78178C5 6.55001 7.72715 3.93018 11.0912 3.93018C14.4553 3.93018 17.1824 6.55006 17.1824 9.78178C17.1824 10.0512 17.163 10.3164 17.1263 10.5762L17.1268 10.5757C17.1405 15.584 20.8978 17.3868 23.8081 17.4615C24.1641 17.3992 24.5308 17.3666 24.9055 17.3666C28.2696 17.3666 30.9967 19.9865 30.9967 23.2182C30.9967 26.45 28.2695 29.0698 24.9055 29.0698C21.5414 29.0698 18.8143 26.4499 18.8143 23.2182Z" fill="#1D1F24"/>
<path d="M24.9088 15.8042C28.2729 15.8042 31 13.1843 31 9.95256C31 6.72081 28.2729 4.10095 24.9088 4.10095C21.5447 4.10095 18.8176 6.72081 18.8176 9.95256C18.8176 13.1843 21.5447 15.8042 24.9088 15.8042Z" fill="#1D1F24"/>
<g clip-path="url(#clip0_367_8736)">
<path d="M41.1477 8.45455L44.081 13.4119H44.1946L47.142 8.45455H50.6151L46.1761 15.7273L50.7145 23H47.1776L44.1946 18.0355H44.081L41.098 23H37.5753L42.1278 15.7273L37.6605 8.45455H41.1477ZM56.5594 23.2131C55.4373 23.2131 54.4714 22.9858 53.6617 22.5312C52.8568 22.072 52.2365 21.4233 51.8009 20.5852C51.3653 19.7424 51.1475 18.7457 51.1475 17.5952C51.1475 16.473 51.3653 15.4882 51.8009 14.6406C52.2365 13.7931 52.8497 13.1326 53.6404 12.6591C54.4359 12.1856 55.3686 11.9489 56.4387 11.9489C57.1584 11.9489 57.8284 12.0649 58.4487 12.2969C59.0737 12.5241 59.6182 12.8674 60.0822 13.3267C60.5509 13.786 60.9155 14.3636 61.1759 15.0597C61.4363 15.7509 61.5665 16.5606 61.5665 17.4886V18.3196H52.3549V16.4446H58.7185C58.7185 16.009 58.6238 15.6231 58.4344 15.2869C58.2451 14.9508 57.9823 14.688 57.6461 14.4986C57.3147 14.3045 56.9288 14.2074 56.4884 14.2074C56.0291 14.2074 55.6219 14.3139 55.2668 14.527C54.9165 14.7353 54.6418 15.017 54.443 15.3722C54.2441 15.7225 54.1423 16.1132 54.1376 16.544V18.3267C54.1376 18.8665 54.237 19.3329 54.4359 19.7259C54.6395 20.1188 54.9259 20.4219 55.2952 20.6349C55.6646 20.848 56.1025 20.9545 56.6092 20.9545C56.9453 20.9545 57.2531 20.9072 57.5325 20.8125C57.8118 20.7178 58.0509 20.5758 58.2498 20.3864C58.4487 20.197 58.6002 19.965 58.7043 19.6903L61.5026 19.875C61.3606 20.5473 61.0694 21.1345 60.629 21.6364C60.1934 22.1335 59.63 22.5218 58.9387 22.8011C58.2522 23.0758 57.4591 23.2131 56.5594 23.2131ZM66.2165 8.45455V23H63.191V8.45455H66.2165ZM71.401 23.206C70.705 23.206 70.0847 23.0852 69.5402 22.8438C68.9957 22.5975 68.5648 22.2353 68.2476 21.7571C67.9351 21.2741 67.7788 20.6728 67.7788 19.9531C67.7788 19.3471 67.8901 18.8381 68.1126 18.4261C68.3352 18.0142 68.6382 17.6828 69.0217 17.4318C69.4053 17.1809 69.8409 16.9915 70.3286 16.8636C70.821 16.7358 71.3371 16.6458 71.8768 16.5938C72.5113 16.5275 73.0227 16.4659 73.4109 16.4091C73.7992 16.3475 74.0809 16.2576 74.2561 16.1392C74.4313 16.0208 74.5189 15.8456 74.5189 15.6136V15.571C74.5189 15.1212 74.3768 14.7732 74.0928 14.527C73.8134 14.2808 73.4157 14.1577 72.8996 14.1577C72.3551 14.1577 71.9218 14.2784 71.5999 14.5199C71.2779 14.7566 71.0648 15.0549 70.9607 15.4148L68.1624 15.1875C68.3044 14.5246 68.5838 13.9517 69.0004 13.4688C69.4171 12.9811 69.9545 12.607 70.6126 12.3466C71.2755 12.0814 72.0426 11.9489 72.9138 11.9489C73.5198 11.9489 74.0999 12.0199 74.6538 12.1619C75.2125 12.304 75.7073 12.5241 76.1382 12.8224C76.5738 13.1207 76.9171 13.5043 77.168 13.973C77.419 14.437 77.5445 14.9934 77.5445 15.642V23H74.6751V21.4872H74.5899C74.4147 21.8281 74.1804 22.1288 73.8868 22.3892C73.5932 22.6449 73.2405 22.8461 72.8286 22.9929C72.4166 23.1349 71.9408 23.206 71.401 23.206ZM72.2675 21.1179C72.7125 21.1179 73.1055 21.0303 73.4464 20.8551C73.7874 20.6752 74.0549 20.4337 74.249 20.1307C74.4431 19.8277 74.5402 19.4844 74.5402 19.1009V17.9432C74.4455 18.0047 74.3153 18.0616 74.1496 18.1136C73.9886 18.161 73.8063 18.206 73.6027 18.2486C73.3991 18.2865 73.1955 18.322 72.9919 18.3551C72.7883 18.3835 72.6036 18.4096 72.4379 18.4332C72.0828 18.4853 71.7727 18.5682 71.5075 18.6818C71.2424 18.7955 71.0364 18.9493 70.8896 19.1435C70.7429 19.3329 70.6695 19.5696 70.6695 19.8537C70.6695 20.2656 70.8186 20.5805 71.1169 20.7983C71.4199 21.0114 71.8035 21.1179 72.2675 21.1179ZM79.5418 23V12.0909H82.475V13.9943H82.5886C82.7875 13.3172 83.1213 12.8059 83.5901 12.4602C84.0588 12.1098 84.5986 11.9347 85.2094 11.9347C85.3609 11.9347 85.5242 11.9441 85.6994 11.9631C85.8746 11.982 86.0285 12.008 86.1611 12.0412V14.7259C86.019 14.6832 85.8225 14.6454 85.5716 14.6122C85.3206 14.5791 85.091 14.5625 84.8827 14.5625C84.4376 14.5625 84.0399 14.6596 83.6895 14.8537C83.3438 15.0431 83.0692 15.3082 82.8656 15.6491C82.6668 15.9901 82.5673 16.383 82.5673 16.8281V23H79.5418ZM87.3754 23V12.0909H90.4009V23H87.3754ZM88.8952 10.6847C88.4454 10.6847 88.0595 10.5355 87.7376 10.2372C87.4203 9.93419 87.2617 9.57197 87.2617 9.15057C87.2617 8.7339 87.4203 8.37642 87.7376 8.07812C88.0595 7.77509 88.4454 7.62358 88.8952 7.62358C89.3451 7.62358 89.7286 7.77509 90.0458 8.07812C90.3678 8.37642 90.5288 8.7339 90.5288 9.15057C90.5288 9.57197 90.3678 9.93419 90.0458 10.2372C89.7286 10.5355 89.3451 10.6847 88.8952 10.6847ZM101.551 15.2017L98.7814 15.3722C98.734 15.1354 98.6322 14.9223 98.476 14.733C98.3197 14.5388 98.1138 14.3849 97.8581 14.2713C97.6072 14.1529 97.3065 14.0938 96.9561 14.0938C96.4874 14.0938 96.092 14.1932 95.77 14.392C95.4481 14.5862 95.2871 14.8466 95.2871 15.1733C95.2871 15.4337 95.3912 15.6539 95.5996 15.8338C95.8079 16.0137 96.1654 16.1581 96.672 16.267L98.6465 16.6648C99.7071 16.8826 100.498 17.233 101.019 17.7159C101.539 18.1989 101.8 18.8333 101.8 19.6193C101.8 20.3343 101.589 20.9616 101.168 21.5014C100.751 22.0412 100.178 22.4626 99.449 22.7656C98.7246 23.0639 97.8889 23.2131 96.9419 23.2131C95.4978 23.2131 94.3472 22.9124 93.4902 22.3111C92.6379 21.705 92.1384 20.8812 91.9916 19.8395L94.9675 19.6832C95.0574 20.1236 95.2752 20.4598 95.6209 20.6918C95.9665 20.919 96.4092 21.0327 96.949 21.0327C97.4793 21.0327 97.9054 20.9309 98.2274 20.7273C98.5541 20.5189 98.7198 20.2514 98.7246 19.9247C98.7198 19.6501 98.6038 19.4252 98.3766 19.25C98.1493 19.0701 97.7989 18.9328 97.3254 18.8381L95.4362 18.4616C94.3709 18.2486 93.5778 17.8793 93.057 17.3537C92.5409 16.8281 92.2828 16.1581 92.2828 15.3438C92.2828 14.643 92.4722 14.0393 92.851 13.5327C93.2345 13.026 93.7719 12.6354 94.4632 12.3608C95.1592 12.0862 95.9736 11.9489 96.9064 11.9489C98.2842 11.9489 99.3685 12.2401 100.159 12.8224C100.955 13.4048 101.419 14.1979 101.551 15.2017Z" fill="#1D1F24"/>
</g>
<defs>
<clipPath id="clip0_367_8736">
<rect width="65" height="18" fill="white" transform="translate(37 7)"/>
</clipPath>
</defs>
</svg>
