<svg width="79" height="25" viewBox="0 0 79 25" fill="none" xmlns="http://www.w3.org/2000/svg">
<path d="M17.3808 6.3722V13.9108C17.3808 14.033 17.3322 14.1502 17.2457 14.2366C17.1592 14.323 17.0419 14.3715 16.9196 14.3715H14.5377C14.4154 14.3715 14.2981 14.3229 14.2116 14.2365C14.1251 14.1501 14.0765 14.033 14.0765 13.9108V1.64891C14.0765 1.52671 14.1251 1.40952 14.2116 1.32311C14.2981 1.2367 14.4154 1.18816 14.5377 1.18816H16.7419C16.8642 1.18816 16.9815 1.2367 17.068 1.32311C17.1545 1.40952 17.2031 1.52671 17.2031 1.64891V3.37571C17.2031 3.37571 17.991 0.912484 20.3295 0.912484C20.3295 0.912484 22.6425 0.633149 23.583 3.19795C23.583 3.19795 24.3709 0.912484 26.7602 0.912484C26.7602 0.912484 30.3134 0.701408 30.3134 4.37461L30.3405 6.3976V13.9362C30.3405 14.0584 30.2919 14.1756 30.2054 14.262C30.1189 14.3484 30.0016 14.3969 29.8793 14.3969H27.4971C27.3748 14.3969 27.2576 14.3483 27.1711 14.2619C27.0846 14.1755 27.036 14.0584 27.0359 13.9362L27.0142 5.71196C27.0819 3.84966 25.5739 3.98516 25.5739 3.98516C23.6761 4.01909 23.8587 6.3976 23.8587 6.3976V13.9362C23.8587 14.0584 23.8101 14.1756 23.7236 14.262C23.6371 14.3484 23.5198 14.3969 23.3975 14.3969H21.0156C20.8933 14.3969 20.776 14.3483 20.6895 14.2619C20.603 14.1755 20.5544 14.0584 20.5544 13.9362V5.89805C20.5544 5.89805 20.6937 3.9681 18.999 3.9681C18.9992 3.9681 17.3216 3.74809 17.3808 6.3722ZM78.7812 6.34966V13.888C78.7812 14.0102 78.7326 14.1274 78.6461 14.2138C78.5596 14.3002 78.4424 14.3487 78.3201 14.3488L75.8427 14.3967C75.7204 14.3967 75.6032 14.3481 75.5167 14.2617C75.4302 14.1753 75.3816 14.0582 75.3816 13.936V5.89805C75.3816 5.89805 75.5209 3.9681 73.8264 3.9681C73.8264 3.9681 72.208 3.88846 72.208 6.91442V13.9106C72.2079 14.0328 72.1593 14.1499 72.0728 14.2363C71.9864 14.3227 71.8691 14.3713 71.7468 14.3713H69.3646C69.2423 14.3713 69.1251 14.3227 69.0386 14.2363C68.9521 14.1499 68.9035 14.0328 68.9035 13.9106V1.64891C68.9035 1.52673 68.9521 1.40957 69.0386 1.32317C69.1251 1.23678 69.2423 1.18822 69.3646 1.18816H71.5689C71.6912 1.18816 71.8085 1.2367 71.895 1.32311C71.9815 1.40952 72.0301 1.52671 72.0301 1.64891V3.37571C72.0301 3.37571 72.818 0.912484 75.1565 0.912484C75.1565 0.912484 77.6614 0.532792 78.5051 3.15021C78.5053 3.15 78.7812 3.68998 78.7812 6.34966ZM61.5825 0.861696C58.5364 0.861696 56.0668 3.42649 56.0668 7.74348C56.0668 11.5443 57.9732 14.6253 61.5825 14.6253C64.9885 14.6253 67.0982 11.5443 67.0982 7.74348C67.0982 3.50268 64.6288 0.861696 61.5825 0.861696ZM63.5051 7.89585C63.5051 9.52107 63.3018 10.3845 63.3018 10.3845C63.0124 12.1025 61.7641 12.105 61.5801 12.0958C61.3814 12.1037 60.1225 12.0859 59.862 10.3845C59.862 10.3845 59.6587 9.52107 59.6587 7.89585V7.62505C59.6587 5.99983 59.862 5.13643 59.862 5.13643C60.1225 3.43503 61.3816 3.41715 61.5801 3.42487C61.7641 3.41573 63.0124 3.41796 63.3018 5.13643C63.3018 5.13643 63.5051 5.99983 63.5051 7.62505V7.89585ZM54.6843 3.35864V1.59934C54.6842 1.47716 54.6356 1.36 54.5492 1.2736C54.4627 1.18721 54.3454 1.13865 54.2231 1.13859H46.3497C46.2274 1.13859 46.1101 1.18714 46.0236 1.27354C45.9371 1.35995 45.8885 1.47714 45.8885 1.59934V3.34503C45.8885 3.46721 45.9371 3.58438 46.0236 3.67077C46.1101 3.75717 46.2274 3.80573 46.3497 3.80578H50.4566L45.5955 10.8511C45.5955 10.8511 45.4039 11.1367 45.4102 11.4522V13.5953C45.4102 13.5953 45.3785 14.3301 46.2126 13.9037C46.2126 13.9037 47.6942 13.0094 50.1784 13.0094C50.1784 13.0094 52.6317 12.9789 54.2674 13.9807C54.2674 13.9807 54.9464 14.2891 54.9464 13.6109V11.7456C54.9464 11.7456 55.008 11.2519 54.36 10.9437C54.36 10.9437 52.4774 9.91092 50.0086 10.0803L54.6843 3.35864ZM12.2381 12.1787L11.4924 11.0447C11.2551 10.6213 11.2722 10.1472 11.2722 10.1472V4.91621C11.3739 0.39607 6.358 0.785514 6.358 0.785514C1.89909 0.785514 1.24046 4.25231 1.24046 4.25231C1.05461 4.94933 1.59509 4.96619 1.59509 4.96619L3.77391 5.18701C3.77391 5.18701 4.14542 5.27193 4.28064 4.83007C4.28064 4.83007 4.56756 3.31761 6.17214 3.31761C7.91804 3.31761 7.89995 4.81464 7.89995 4.81464V6.06788C4.41465 6.18429 2.79949 7.15089 2.79949 7.15089C0.647516 8.3698 0.782942 10.7908 0.782942 10.7908C0.782942 14.7352 4.54479 14.5657 4.54479 14.5657C6.95094 14.5657 8.37435 12.8052 8.37435 12.8052C8.79791 13.5504 9.57753 14.261 9.57753 14.261C9.96754 14.6836 10.374 14.3289 10.374 14.3289L12.1364 12.8223C12.526 12.5342 12.2381 12.1787 12.2381 12.1787ZM5.71909 12.13C4.58729 12.13 4.16657 11.0063 4.35446 9.90198C4.54255 8.79764 5.51941 7.92977 7.90015 7.95517V8.62659C7.98454 11.5597 6.66118 12.13 5.71909 12.13ZM43.8917 12.1787L43.1462 11.0447C42.9089 10.6213 42.9258 10.1472 42.9258 10.1472V4.91621C43.0274 0.39607 38.0116 0.785514 38.0116 0.785514C33.5527 0.785514 32.8941 4.25231 32.8941 4.25231C32.7082 4.94933 33.2487 4.96619 33.2487 4.96619L35.4275 5.18701C35.4275 5.18701 35.799 5.27193 35.9342 4.83007C35.9342 4.83007 36.2212 3.31761 37.8257 3.31761C39.5716 3.31761 39.5535 4.81464 39.5535 4.81464V6.06788C36.0684 6.18429 34.4531 7.15089 34.4531 7.15089C32.3011 8.3698 32.4365 10.7908 32.4365 10.7908C32.4365 14.7352 36.1984 14.5657 36.1984 14.5657C38.6045 14.5657 40.0279 12.8052 40.0279 12.8052C40.4517 13.5504 41.2309 14.261 41.2309 14.261C41.6209 14.6836 42.0276 14.3289 42.0276 14.3289L43.7898 12.8223C44.1796 12.5342 43.8917 12.1787 43.8917 12.1787ZM37.3727 12.13C36.2409 12.13 35.8202 11.0063 36.008 9.90198C36.1961 8.79764 37.173 7.92977 39.5535 7.95517V8.62659C39.6381 11.5597 38.315 12.13 37.3727 12.13Z" fill="white"/>
<path d="M49.8911 22.0786C49.8911 22.0786 49.6918 22.425 49.9367 22.5024C49.9367 22.5024 50.2132 22.6103 50.5581 22.2905C50.5581 22.2905 53.0732 20.0954 53.1338 16.099C53.1338 16.099 53.1523 15.5999 52.9518 15.4634C52.9518 15.4634 52.1639 14.767 49.3305 14.9788C49.3305 14.9788 46.8607 15.1454 45.5123 16.3414C45.5123 16.3414 45.3911 16.4472 45.3911 16.5833C45.3911 16.5833 45.3621 16.8773 46.1033 16.7499C46.1033 16.7499 48.5729 16.4015 50.0426 16.5833C50.0426 16.5833 50.8005 16.6741 51.0126 16.9317C51.0126 16.9317 51.3611 17.2194 51.1791 18.1728C51.1791 18.1732 50.6789 20.5952 49.8911 22.0786Z" fill="white"/>
<path d="M49.3931 18.2455C49.3931 18.2455 49.762 18.723 49.1668 19.1347C49.1668 19.1347 42.8089 24.2156 32.1334 24.2156C32.1334 24.2156 21.1443 24.7572 11.9685 16.4279C11.9685 16.4279 11.6468 16.1458 11.8465 15.8835C11.8465 15.8835 12.025 15.6421 12.4872 15.9046C12.4872 15.9046 21.1189 21.2782 32.4553 21.2782C32.4553 21.2782 40.3348 21.5829 48.4177 18.1293C48.4177 18.1293 49.0617 17.796 49.3931 18.2455Z" fill="white"/>
</svg>
