<svg width="100" height="25" viewBox="0 0 100 25" fill="none" xmlns="http://www.w3.org/2000/svg">
<path d="M86.7862 12.5C86.7862 8.70483 89.5808 6.03009 93.2837 6.03009C96.9866 6.03009 99.7812 8.70494 99.7812 12.5001C99.7812 16.2953 96.9866 18.97 93.2837 18.97C89.5808 18.97 86.7862 16.259 86.7862 12.5ZM96.1133 12.5C96.1133 10.7289 95.0303 9.42771 93.3186 9.42771C91.6069 9.42771 90.5241 10.7289 90.5241 12.5C90.5241 14.2711 91.6069 15.5723 93.3186 15.5723C95.0303 15.5723 96.1133 14.3072 96.1133 12.5ZM84.3409 9.50003C84.5854 10.006 84.6902 10.5482 84.6902 11.1265C84.6902 12.5 83.9915 13.7651 82.8737 14.7409C84.4107 15.5 85.319 17.3434 85.319 19.0783C85.319 22.3313 82.7689 24.5 78.8914 24.5C75.0138 24.5 72.4637 22.3674 72.4637 19.0783C72.4287 17.2711 73.3719 15.6085 74.909 14.7409C73.7562 13.7651 73.0924 12.5 73.0924 11.1265C73.0924 8.27113 75.2584 6.17472 78.6818 6.17472C80.7078 6.17472 81.3017 6.53611 82.4545 6.53611C83.223 6.57227 84.0265 6.35541 84.6902 5.92171C84.9347 5.77707 85.1792 5.6687 85.4587 5.6687C85.9128 5.6687 86.1574 6.13856 86.1574 6.7169C86.2622 7.98196 85.4937 9.10238 84.3409 9.50003ZM81.7209 18.9699C81.7209 17.5241 80.638 16.512 78.9263 16.512C77.2146 16.512 76.1316 17.4879 76.1316 18.9699C76.1316 20.3433 77.3193 21.4277 78.9263 21.4277C80.5332 21.4277 81.7209 20.3433 81.7209 18.9699ZM76.6556 11.3433C76.6906 12.6084 77.7386 13.6204 78.9961 13.5844C80.1839 13.5482 81.0921 12.5723 81.162 11.3433C81.162 10.0422 80.2537 9.13854 78.9263 9.13854C77.5989 9.13854 76.6556 10.006 76.6556 11.3433ZM70.7869 12.753V17.2711C70.7869 18.1386 70.4725 18.5 69.5643 18.5H68.3416C67.4333 18.5 67.119 18.1386 67.119 17.2711V12.8614C67.119 11.741 66.9442 10.9458 66.56 10.4398C66.1059 9.86141 65.4073 9.57224 64.7085 9.6084C63.9749 9.57224 63.2763 9.89757 62.7872 10.4398C62.3681 10.9458 62.0886 11.741 62.0886 12.8253V17.2349C62.0886 18.1386 61.7044 18.4639 60.8659 18.4639H59.6433C58.8049 18.4639 58.4206 18.1386 58.4206 17.2349V7.11445C58.4206 6.53611 58.7001 6.2831 59.1193 6.2831C59.7481 6.2831 60.6214 6.82528 61.2851 7.87348C62.2982 6.7169 63.7304 6.06624 65.2325 6.06624C67.0141 6.06624 68.4464 6.7169 69.3895 7.80116C70.3328 8.88553 70.7869 10.3674 70.7869 12.753ZM51.7136 2.56025C51.7135 1.40346 52.6566 0.5 53.7395 0.5H53.8094C54.8923 0.572318 55.7307 1.5482 55.6608 2.66862C55.5909 3.78925 54.6477 4.65666 53.5649 4.58434C52.5169 4.54818 51.7136 3.64461 51.7136 2.56025ZM51.9581 17.2711V7.76501C51.9581 6.8976 52.2724 6.49995 53.1808 6.49995H54.4034C55.3116 6.49995 55.6261 6.86144 55.6261 7.76501V17.2711C55.6261 18.1386 55.3116 18.5 54.4034 18.5H53.1808C52.2724 18.5 51.9581 18.1386 51.9581 17.2711ZM45.4954 17.2711V5.34337C45.4954 2.3434 47.1024 0.644534 48.4647 0.644534C48.884 0.644534 49.1634 0.933704 49.1634 1.47589V17.2712C49.1634 18.1746 48.8141 18.5 47.9408 18.5H46.7181C45.8796 18.5 45.4954 18.1747 45.4954 17.2711ZM30.4044 12.5001C30.4044 8.70494 33.199 6.03019 36.9019 6.03019C40.6048 6.03019 43.3995 8.70494 43.3995 12.5001C43.3995 16.2953 40.6048 18.97 36.9019 18.97C33.199 18.97 30.4044 16.2591 30.4044 12.5001ZM39.6966 12.5001C39.6966 10.729 38.6136 9.42781 36.9019 9.42781C35.1902 9.42781 34.1073 10.729 34.1073 12.5001C34.1073 14.2712 35.1902 15.5724 36.9019 15.5724C38.6136 15.5724 39.6966 14.3073 39.6966 12.5001ZM28.518 7.76501V17.8854C28.518 18.4639 28.2386 18.7169 27.8193 18.7169C27.1906 18.7169 26.3172 18.1747 25.6885 17.1627C24.7103 18.3193 23.3131 18.9699 21.8109 18.9338C20.4135 18.9699 19.0862 18.4639 18.038 17.4879C16.9552 16.4036 16.3614 14.7409 16.3614 12.3554V7.76501C16.3614 6.8976 16.6757 6.49995 17.584 6.49995H18.8067C19.7149 6.49995 20.0293 6.86144 20.0293 7.76501V12.0301C20.0293 13.4759 20.2739 14.2349 20.728 14.7409C21.1471 15.1746 21.776 15.4277 22.3698 15.3916C23.0336 15.3916 23.6623 15.1386 24.1164 14.6326C24.5706 14.1265 24.8151 13.3314 24.8151 12.1025V7.7649C24.8151 6.86133 25.1994 6.49985 26.0377 6.49985H27.2604C28.1338 6.49985 28.518 6.86144 28.518 7.76501ZM13.8463 1.47589V17.8856C13.8463 18.4639 13.5668 18.7169 13.1476 18.7169C12.5188 18.7169 11.6455 18.1747 11.0167 17.1988C10.2482 18.1386 8.6762 18.9699 6.85965 18.9699C3.22655 18.9698 0.78125 16.2228 0.78125 12.5C0.78125 8.77715 3.29644 6.03009 6.85955 6.03009C8.04726 6.03009 9.20011 6.39157 10.2132 7.07829V5.34337C10.2132 2.3434 11.855 0.644534 13.1825 0.644534C13.6017 0.644534 13.8463 0.933704 13.8463 1.47589ZM10.2132 12.5001C10.2132 10.6567 8.95558 9.42781 7.38356 9.42781C5.81164 9.42781 4.51909 10.6567 4.51909 12.5001C4.51909 14.3435 5.77669 15.5724 7.38356 15.5724C8.99053 15.5724 10.2132 14.3797 10.2132 12.5001Z" fill="white"/>
</svg>
