<svg width="106" height="23" viewBox="0 0 106 23" fill="none" xmlns="http://www.w3.org/2000/svg">
<path d="M37.8044 13.2091L37.1772 14.988H37.125C37.0204 14.5869 36.8288 13.9765 36.5152 13.244L33.1525 4.78533H29.8596V18.2668H32.0375V9.94771C32.0375 9.4245 32.0375 8.83152 32.0201 8.09902C32.0026 7.73277 31.9678 7.45372 31.9504 7.24444H32.0026C32.1072 7.76765 32.2291 8.15134 32.3162 8.39551L36.3583 18.2319H37.8916L41.8988 8.30831C41.9859 8.08158 42.073 7.62813 42.1602 7.24444H42.2124C42.1602 8.23855 42.1253 9.12801 42.1079 9.66866V18.2145H44.4251V4.75045H41.2542L37.8044 13.2091ZM46.6204 8.55247H48.8854V18.2145H46.6204V8.55247ZM47.7703 4.47141C47.387 4.47141 47.0734 4.61093 46.8121 4.8551C46.5507 5.09926 46.4113 5.41319 46.4113 5.79688C46.4113 6.16313 46.5507 6.47706 46.8121 6.72123C47.0734 6.96539 47.387 7.08748 47.7703 7.08748C48.1536 7.08748 48.4847 6.94795 48.7286 6.72123C48.9899 6.47706 49.1293 6.16313 49.1293 5.79688C49.1293 5.43063 48.9899 5.1167 48.7286 4.8551C48.5021 4.61093 48.171 4.47141 47.7703 4.47141ZM56.9173 8.46527C56.4992 8.37807 56.0636 8.32575 55.6454 8.32575C54.6175 8.32575 53.6767 8.55247 52.8926 9.00593C52.1086 9.45938 51.4814 10.0872 51.0807 10.8721C50.6625 11.6743 50.4534 12.5987 50.4534 13.6625C50.4534 14.5869 50.6625 15.4066 51.0632 16.1565C51.464 16.889 52.0215 17.482 52.7707 17.8831C53.485 18.2843 54.3213 18.4935 55.2621 18.4935C56.3424 18.4935 57.2658 18.2668 57.9975 17.8482L58.015 17.8308V15.7379L57.9278 15.8077C57.5968 16.0519 57.2135 16.2612 56.8302 16.3832C56.4295 16.5228 56.0636 16.5925 55.75 16.5925C54.844 16.5925 54.1297 16.3309 53.6244 15.7554C53.1017 15.1973 52.8404 14.4299 52.8404 13.4707C52.8404 12.4766 53.1017 11.6918 53.6418 11.1162C54.1819 10.5407 54.8963 10.2442 55.7674 10.2442C56.4992 10.2442 57.2484 10.4884 57.9278 10.9767L58.015 11.0465V8.83152L57.9975 8.81408C57.7013 8.692 57.3703 8.55247 56.9173 8.46527ZM64.3917 8.39551C63.8342 8.39551 63.3115 8.56991 62.8585 8.93616C62.4752 9.25009 62.2139 9.70354 61.9874 10.2442H61.9699V8.55247H59.705V18.2145H61.9699V13.2788C61.9699 12.4417 62.1442 11.7441 62.5275 11.2383C62.9108 10.7151 63.3986 10.4535 63.991 10.4535C64.2001 10.4535 64.4091 10.5058 64.6705 10.5407C64.9144 10.6104 65.0886 10.6802 65.2106 10.7674L65.2977 10.8372V8.56991L65.2454 8.55247C65.0886 8.44783 64.775 8.39551 64.3917 8.39551ZM70.5594 8.34319C68.9739 8.34319 67.7021 8.81408 66.8135 9.73843C65.9075 10.6628 65.4719 11.9359 65.4719 13.5404C65.4719 15.0403 65.9249 16.2612 66.7961 17.1506C67.6672 18.0226 68.852 18.4761 70.3329 18.4761C71.8835 18.4761 73.1206 18.0052 74.0091 17.0634C74.9151 16.1216 75.3507 14.8659 75.3507 13.3137C75.3507 11.779 74.9325 10.5581 74.0788 9.66866C73.26 8.7792 72.0578 8.34319 70.5594 8.34319ZM72.3714 15.7728C71.9532 16.3135 71.2912 16.5751 70.4723 16.5751C69.6534 16.5751 68.9914 16.3135 68.5209 15.7379C68.0505 15.1973 67.824 14.4125 67.824 13.4184C67.824 12.3894 68.0679 11.6046 68.5209 11.0465C68.9914 10.4884 69.636 10.2093 70.4549 10.2093C71.2563 10.2093 71.8835 10.4709 72.3365 11.0116C72.7895 11.5522 73.0335 12.3371 73.0335 13.366C72.9986 14.4125 72.807 15.2322 72.3714 15.7728ZM80.4033 12.5638C79.689 12.2673 79.236 12.0406 79.0269 11.8487C78.8527 11.6743 78.7656 11.4301 78.7656 11.1162C78.7656 10.8546 78.8701 10.593 79.1315 10.4186C79.3928 10.2442 79.689 10.157 80.1246 10.157C80.5079 10.157 80.9086 10.2268 81.2919 10.3314C81.6752 10.436 82.0237 10.593 82.3024 10.8023L82.3895 10.8721V8.74432L82.3373 8.72688C82.0759 8.62224 81.7275 8.51759 81.3093 8.43039C80.8912 8.36063 80.5079 8.32575 80.1943 8.32575C79.114 8.32575 78.2255 8.58735 77.5286 9.16289C76.8316 9.70354 76.5006 10.436 76.5006 11.2906C76.5006 11.7441 76.5703 12.1452 76.7271 12.4766C76.8839 12.8079 77.1104 13.1219 77.424 13.3835C77.7376 13.6276 78.1906 13.9067 78.8178 14.1683C79.3405 14.395 79.7413 14.5694 79.9852 14.709C80.2291 14.8485 80.3859 15.0054 80.5079 15.1275C80.595 15.2671 80.6473 15.4415 80.6473 15.6682C80.6473 16.3135 80.1594 16.6274 79.1663 16.6274C78.783 16.6274 78.3823 16.5576 77.9119 16.4007C77.4414 16.2437 77.0059 16.017 76.64 15.7554L76.5529 15.6856V17.9006L76.6051 17.918C76.9362 18.075 77.3369 18.1796 77.8247 18.3017C78.3126 18.3889 78.7482 18.4587 79.1315 18.4587C80.2988 18.4587 81.257 18.197 81.9365 17.6215C82.6335 17.0634 82.9993 16.3484 82.9993 15.424C82.9993 14.7787 82.8251 14.2032 82.4418 13.7672C81.9365 13.3486 81.3093 12.9126 80.4033 12.5638ZM88.9754 8.34319C87.3899 8.34319 86.118 8.81408 85.2295 9.73843C84.3409 10.6628 83.8879 11.9359 83.8879 13.5404C83.8879 15.0403 84.3409 16.2612 85.212 17.1506C86.0832 18.0226 87.2679 18.4761 88.7489 18.4761C90.2995 18.4761 91.5365 18.0052 92.4251 17.0634C93.3311 16.1216 93.7667 14.8659 93.7667 13.3137C93.7667 11.779 93.3485 10.5581 92.4948 9.66866C91.6759 8.7792 90.4737 8.34319 88.9754 8.34319ZM90.7699 15.7728C90.3518 16.3135 89.6897 16.5751 88.8708 16.5751C88.0345 16.5751 87.3899 16.3135 86.9195 15.7379C86.4491 15.1973 86.2226 14.4125 86.2226 13.4184C86.2226 12.3894 86.4665 11.6046 86.9195 11.0465C87.3899 10.4884 88.0345 10.2093 88.8534 10.2093C89.6374 10.2093 90.2821 10.4709 90.7351 11.0116C91.1881 11.5522 91.432 12.3371 91.432 13.366C91.432 14.4125 91.2055 15.2322 90.7699 15.7728ZM105.876 10.4186V8.55247H103.593V5.69224L103.523 5.70968L101.363 6.35498L101.311 6.37242V8.55247H97.8959V7.33164C97.8959 6.77355 98.0353 6.33754 98.2792 6.05849C98.5231 5.77944 98.889 5.63992 99.342 5.63992C99.6556 5.63992 99.9866 5.70968 100.353 5.86664L100.44 5.91896V3.94819L100.387 3.93075C100.074 3.82611 99.6556 3.75635 99.1155 3.75635C98.436 3.75635 97.8436 3.91331 97.3035 4.17492C96.7634 4.47141 96.3627 4.87254 96.0665 5.41319C95.7703 5.9364 95.6135 6.52938 95.6135 7.20956V8.55247H94.028V10.4012H95.6135V18.2145H97.8959V10.4186H101.311V15.3891C101.311 17.4297 102.269 18.4587 104.186 18.4587C104.499 18.4587 104.83 18.4063 105.144 18.354C105.475 18.2843 105.719 18.197 105.858 18.1273L105.876 18.1098V16.2437L105.788 16.3135C105.649 16.4007 105.527 16.4704 105.318 16.5228C105.144 16.5751 104.987 16.5925 104.865 16.5925C104.412 16.5925 104.098 16.4879 103.872 16.2263C103.663 15.9821 103.558 15.581 103.558 14.988V10.4186H105.876Z" fill="white"/>
<path d="M0.656738 0.250244H11.3369V10.9412H0.656738V0.250244Z" fill="white"/>
<path d="M12.457 0.250244H23.1372V10.9412H12.457V0.250244Z" fill="white"/>
<path d="M0.656738 12.0586H11.3369V22.7496H0.656738V12.0586Z" fill="white"/>
<path d="M12.457 12.0586H23.1372V22.7496H12.457V12.0586Z" fill="white"/>
</svg>
