<svg width="69" height="19" viewBox="0 0 69 19" fill="none" xmlns="http://www.w3.org/2000/svg">
<path d="M65.3088 9.04398L69 19C67.9122 18.8417 66.8249 18.6435 65.7179 18.4648L63.6385 12.9637L61.5021 18.0107C60.4534 17.8321 59.4234 17.7726 58.3746 17.6339L62.1237 8.92561L58.7233 0H61.8706L63.774 4.98688L65.8142 0H68.9994L65.3088 9.04398ZM56.2382 0H53.3824V17.2583C54.3149 17.3179 55.2858 17.3571 56.2382 17.4756V0ZM50.9152 17.0601C48.3125 16.8821 45.7091 16.7245 43.0479 16.6643V7.64623e-05H45.9616V13.8542C47.6324 13.8935 49.3027 14.0315 50.9152 14.1107V17.0601ZM39.9392 6.74942V9.71784H35.9571V16.4666H33.0828V0H41.2415V2.96842H35.9577V6.74949H39.9398L39.9392 6.74942ZM28.1868 2.96842V16.625C27.2153 16.625 26.2251 16.625 25.2727 16.6643V2.96842H22.2616V0H31.2166V2.96842H28.1868ZM19.115 9.87558C17.8332 9.87558 16.3176 9.87558 15.2298 9.93576V14.3488C16.9393 14.2297 18.6487 14.0916 20.3774 14.0322V16.8821L12.3163 17.5357V0H20.3769V2.96842H15.2297V6.96665C16.3567 6.96665 18.0855 6.90716 19.1148 6.90716V9.87619L19.115 9.87558ZM2.97139 8.21306V18.5839C1.92334 18.7029 0.990264 18.8416 0 19V0H2.77807L6.56569 10.787V0H9.47982V17.7726C8.45038 17.9512 7.40113 18.0107 6.29401 18.1685L2.97139 8.21306Z" fill="white"/>
</svg>
