<svg width="96" height="27" viewBox="0 0 96 27" fill="none" xmlns="http://www.w3.org/2000/svg">
<path d="M11.5236 0.854147C11.7137 0.854147 11.8088 0.94888 11.9989 1.04361C10.8582 1.51728 9.71737 2.7488 9.14698 5.40132L7.05555 5.96971C7.721 4.07506 9.05191 0.854147 11.5236 0.854147ZM12.5693 1.80147C12.7595 2.36987 12.9496 3.033 12.9496 4.07506C12.9496 4.16979 12.9496 4.16979 12.9496 4.26452L10.1927 5.02239C10.7631 3.033 11.7137 2.18041 12.5693 1.80147ZM15.041 3.50666L13.8052 3.88559C13.8052 3.79086 13.8052 3.69613 13.8052 3.6014C13.8052 2.7488 13.7101 2.08567 13.52 1.51728C14.1854 1.70674 14.7558 2.55934 15.041 3.50666ZM21.2202 5.02239C21.2202 4.92765 21.1252 4.83292 21.0301 4.83292C20.84 4.83292 18.8436 4.64346 18.8436 4.64346C18.8436 4.64346 17.4176 3.22246 17.2275 3.12773C17.0374 2.93827 16.7522 3.033 16.6571 3.033C16.6571 3.033 16.3719 3.12773 15.8966 3.3172C15.4213 1.99094 14.5657 0.759415 13.1397 0.759415H13.0446C12.6644 0.191018 12.094 0.00155293 11.6187 0.00155293C8.19633 -0.0931798 6.58022 4.16979 6.00983 6.34864C5.24931 6.53811 4.48879 6.82231 3.6332 7.10651C2.87268 7.29597 2.87268 7.3907 2.77762 8.05383C2.68255 8.5275 0.78125 23.4953 0.78125 23.4953L15.8966 26.3372L24.0722 24.5373C24.0722 24.5373 21.2202 5.21185 21.2202 5.02239Z" fill="white"/>
<path d="M20.9364 4.83312C20.8413 4.83312 18.845 4.64366 18.845 4.64366C18.845 4.64366 17.419 3.22267 17.2289 3.12794C17.1338 3.0332 17.1338 3.0332 17.0387 3.0332L15.8979 26.3374L24.0735 24.5375C24.0735 24.5375 21.2216 5.21206 21.2216 5.02259C21.2216 4.92786 21.0315 4.83312 20.9364 4.83312Z" fill="white"/>
<path d="M13.1415 9.37925L12.0958 12.4107C12.0958 12.4107 11.2402 11.937 10.0994 11.937C8.48328 11.937 8.38821 12.8844 8.38821 13.1686C8.38821 14.4948 12.0007 15.0632 12.0007 18.2841C12.0007 20.8419 10.3846 22.4524 8.19808 22.4524C5.63133 22.4524 4.30042 20.8419 4.30042 20.8419L4.96587 18.5683C4.96587 18.5683 6.29678 19.7051 7.43756 19.7051C8.19808 19.7051 8.48328 19.1367 8.48328 18.6631C8.48328 16.8631 5.53626 16.7684 5.53626 13.8317C5.53626 11.3686 7.3425 9.00032 10.8599 9.00032C12.476 8.90559 13.1415 9.37925 13.1415 9.37925Z" fill="#FFFFFE"/>
<path d="M33.6743 14.9689C32.8187 14.4952 32.4385 14.1163 32.4385 13.6426C32.4385 12.9795 33.0089 12.6006 33.9595 12.6006C35.0052 12.6006 35.9559 13.0742 35.9559 13.0742L36.7164 10.8007C36.7164 10.8007 36.051 10.2323 34.0546 10.2323C31.2026 10.2323 29.3013 11.8427 29.3013 14.1163C29.3013 15.4426 30.252 16.3899 31.3928 17.053C32.3434 17.6214 32.7237 18.0003 32.7237 18.5687C32.7237 19.1371 32.2484 19.7055 31.2977 19.7055C29.9668 19.7055 28.6359 19.0424 28.6359 19.0424L27.8754 21.316C27.8754 21.316 29.0161 22.0739 31.0125 22.0739C33.8645 22.0739 35.9559 20.6529 35.9559 18.0951C35.9559 16.6741 34.9102 15.632 33.6743 14.9689ZM45.1772 10.1375C43.7512 10.1375 42.6105 10.8007 41.7549 11.8427L42.9907 5.4009H39.7585L36.6214 21.7897H39.8536L40.8993 16.2004C41.2795 14.1163 42.4203 12.79 43.466 12.79C44.2266 12.79 44.5118 13.2637 44.5118 14.0216C44.5118 14.4952 44.5118 14.9689 44.4167 15.4426L43.1808 21.8844H46.4131L47.6489 15.2531C47.744 14.59 47.839 13.7374 47.839 13.169C47.839 11.2743 46.8884 10.1375 45.1772 10.1375ZM53.4479 19.5161C52.3071 19.5161 51.9268 18.5687 51.9268 17.4319C51.9268 15.632 52.8775 12.6006 54.5887 12.6006C55.7294 12.6006 56.1097 13.5479 56.1097 14.4952C56.1097 16.5794 55.1591 19.5161 53.4479 19.5161ZM55.064 10.1375C51.1663 10.1375 48.5996 13.6426 48.5996 17.5267C48.5996 19.9897 50.1206 21.9791 53.0676 21.9791C56.8702 21.9791 59.437 18.5687 59.437 14.59C59.437 12.3164 58.1061 10.1375 55.064 10.1375ZM64.5705 19.6108C63.7149 19.6108 63.2396 19.1371 63.2396 19.1371L63.81 16.1057C64.1902 14.1163 65.236 12.79 66.3767 12.79C67.3274 12.79 67.7076 13.7374 67.7076 14.59C67.6126 16.6741 66.3767 19.6108 64.5705 19.6108ZM67.7076 10.1375C65.5211 10.1375 64.2853 12.0322 64.2853 12.0322L64.4754 10.327H61.6235C61.5284 11.4638 61.2432 13.2637 60.958 14.59L58.6765 26.3368H61.9087L62.7643 21.6002H62.8593C62.8593 21.6002 63.5248 21.9791 64.7606 21.9791C68.5632 21.9791 71.0349 18.0951 71.0349 14.211C71.0349 12.1269 70.0843 10.1375 67.7076 10.1375ZM75.598 5.59036C74.5523 5.59036 73.7918 6.44296 73.7918 7.48502C73.7918 8.43234 74.3622 9.09547 75.3129 9.09547C76.3586 9.09547 77.2142 8.43234 77.2142 7.20082C77.2142 6.25349 76.5487 5.59036 75.598 5.59036ZM71.13 21.7897H74.3622L76.5487 10.4217H73.3165L71.13 21.7897ZM84.7243 10.4217H82.4427L82.5378 9.85333C82.7279 8.71654 83.3934 7.76921 84.4391 7.76921C85.0095 7.76921 85.4848 7.95868 85.4848 7.95868L86.1503 5.4009C86.1503 5.4009 85.5799 5.1167 84.4391 5.1167C83.2983 5.1167 82.1575 5.4009 81.3019 6.15876C80.1612 7.10609 79.6858 8.43234 79.4006 9.7586L79.3056 10.327H77.7845L77.3092 12.79H78.8303L77.1191 21.7897H80.3513L82.0625 12.79H84.249L84.7243 10.4217ZM92.4246 10.4217C92.4246 10.4217 90.4282 15.4426 89.4776 18.1898C89.3825 17.3372 88.717 10.4217 88.717 10.4217H85.2947L87.196 20.8423C87.196 21.0318 87.196 21.2213 87.1009 21.4107C86.7207 22.1686 86.0552 22.8317 85.3898 23.3054C84.8194 23.779 84.0588 24.0632 83.5835 24.2527L84.4391 27C85.1046 26.9052 86.4355 26.3368 87.5763 25.2948C89.0022 23.9685 90.4282 21.7897 91.7591 18.9477L95.6568 10.5165L92.4246 10.4217Z" fill="white"/>
</svg>
