<svg width="123" height="22" viewBox="0 0 123 22" fill="none" xmlns="http://www.w3.org/2000/svg">
<path d="M6.37442 14.4689C9.89015 14.4689 12.7402 11.2299 12.7402 7.23443C12.7402 3.23896 9.89015 0 6.37442 0C2.8587 0 0.00863647 3.23896 0.00863647 7.23443C0.00863647 11.2299 2.8587 14.4689 6.37442 14.4689Z" fill="white"/>
<path d="M6.39508 21.3813C9.91081 21.3813 12.7609 20.4818 12.7609 19.3723C12.7609 18.2627 9.91081 17.3633 6.39508 17.3633C2.87936 17.3633 0.0292969 18.2627 0.0292969 19.3723C0.0292969 20.4818 2.87936 21.3813 6.39508 21.3813Z" fill="white"/>
<path d="M119.752 15.3296C119.752 15.7694 119.993 15.978 120.414 15.9317L122.32 15.6769C122.52 15.6533 122.541 15.492 122.42 15.2834C122.22 14.9361 121.979 14.1953 121.979 13.0374V1.04563C121.979 0.605862 121.738 0.397302 121.317 0.443544L119.411 0.698346C119.211 0.721939 119.19 0.883313 119.311 1.09187C119.512 1.43916 119.753 2.17997 119.753 3.33791V6.02371H119.652C119.091 5.16682 118.148 4.65816 117.104 4.65816C114.497 4.65816 112.591 7.15899 112.591 10.562C112.591 13.965 114.457 16.2337 116.683 16.2337C117.947 16.2337 118.97 15.5854 119.652 14.335H119.753V15.3306L119.752 15.3296ZM117.385 14.334C115.901 14.334 114.897 12.8062 114.897 10.3987C114.897 7.99134 115.92 6.30116 117.485 6.30116C118.889 6.30116 119.752 7.66671 119.752 9.72777V11.232C119.752 13.0383 118.709 14.334 117.385 14.334ZM106.151 15.9308H108.879C109.079 15.9308 109.1 15.7458 108.979 15.5373C108.819 15.2598 108.638 14.5879 108.638 13.2912V11.3C108.638 8.38298 110.002 7.22599 111.326 7.22599C111.567 7.22599 111.747 7.22599 111.948 7.27224C112.128 7.31848 112.228 7.24864 112.228 7.04103V5.02715C112.228 4.81859 112.148 4.70345 111.988 4.67986C111.847 4.65627 111.687 4.65627 111.506 4.65627C110.102 4.65627 109.199 5.74437 108.718 7.75825H108.637V5.53581C108.637 5.09604 108.397 4.88748 107.976 4.93372L106.05 5.18852C105.85 5.21211 105.829 5.37349 105.95 5.58205C106.15 5.92933 106.39 6.67015 106.39 7.82808V13.2922C106.39 14.5888 106.21 15.2598 106.049 15.5382C105.929 15.7468 105.949 15.9317 106.149 15.9317L106.151 15.9308ZM98.9898 16.2318C100.213 16.2318 101.277 15.5373 101.899 14.3331H101.998V15.3287C101.998 15.7685 102.239 15.977 102.66 15.9308L104.586 15.676C104.786 15.6524 104.806 15.491 104.686 15.2825C104.486 14.9352 104.245 14.1944 104.245 13.0364V4.95826H102.72L102.278 6.23132H102.178C101.576 5.2593 100.553 4.65721 99.3693 4.65721C96.8613 4.65721 94.9159 7.15805 94.9159 10.5611C94.9159 13.9641 96.9022 16.2328 98.9882 16.2328L98.9898 16.2318ZM99.6915 14.3331C98.2073 14.3331 97.244 12.7363 97.244 10.328C97.244 7.91962 98.267 6.30021 99.7716 6.30021C101.075 6.30021 101.998 7.57328 101.998 9.72683V11.2085C101.998 13.061 100.935 14.334 99.6915 14.334V14.3331ZM88.9587 14.4718C87.414 14.4718 86.4711 12.9213 86.4711 10.4205C86.4711 7.91962 87.4336 6.41535 88.9587 6.41535C90.4837 6.41535 91.4667 7.89697 91.4667 10.4205C91.4667 12.9439 90.4837 14.4718 88.9587 14.4718ZM88.9587 16.2318C91.7668 16.2318 93.8536 13.8244 93.8536 10.4205C93.8536 7.01649 91.7668 4.65533 88.9587 4.65533C86.1506 4.65533 84.0637 7.04008 84.0637 10.4205C84.0637 13.8008 86.1497 16.2318 88.9587 16.2318ZM78.6478 16.2318C81.1558 16.2318 83.1413 13.8244 83.1413 10.3053C83.1413 6.78622 81.2752 4.65627 79.0093 4.65627C77.7655 4.65627 76.7425 5.35084 76.0801 6.55501H75.9796V1.04563C75.9796 0.605862 75.7391 0.397302 75.318 0.443544L73.4119 0.698346C73.2115 0.721939 73.1911 0.883313 73.3113 1.09187C73.5116 1.43916 73.7529 2.17997 73.7529 3.33791V15.9327H75.2779L75.6794 14.636H75.78C76.4015 15.6316 77.4654 16.2328 78.6486 16.2328L78.6478 16.2318ZM78.2668 14.5879C76.8431 14.5879 75.9796 13.245 75.9796 11.0924V9.68058C75.9796 7.89792 76.9821 6.55501 78.3469 6.55501C79.8507 6.55501 80.8345 8.10553 80.8345 10.4903C80.8345 12.875 79.8515 14.5879 78.2668 14.5879ZM67.314 10.7677C66.2509 10.7677 65.5485 9.91085 65.5485 8.47547C65.5485 7.04008 66.2501 6.1143 67.314 6.1143C68.3779 6.1143 69.0795 7.01743 69.0795 8.47547C69.0795 9.9335 68.3779 10.7677 67.314 10.7677ZM52.7698 15.9298H55.4781C55.6784 15.9298 55.6989 15.7449 55.5787 15.5363C55.4184 15.2589 55.2377 14.5869 55.2377 13.2903V9.56262C55.2377 7.59498 56.3212 6.57578 57.5044 6.57578C58.5675 6.57578 59.1898 7.38548 59.1898 8.98318V13.2893C59.1898 14.586 59.0091 15.257 58.8488 15.5354C58.7286 15.7439 58.7482 15.9289 58.9494 15.9289H61.6774C61.8777 15.9289 61.8981 15.7439 61.7779 15.5354C61.6177 15.2579 61.4369 14.586 61.4369 13.2893V8.91429C61.4369 6.11336 60.113 4.65438 58.247 4.65438C56.923 4.65438 55.9802 5.32536 55.3383 6.55313H55.2377V5.53486C55.2377 5.09509 54.9973 4.88653 54.5761 4.93278L52.67 5.18758C52.4696 5.21117 52.4492 5.37255 52.5694 5.58111C52.7698 5.92839 53.011 6.6692 53.011 7.82714V13.2912C53.011 14.5879 52.8303 15.2589 52.67 15.5373C52.5498 15.7458 52.5694 15.9308 52.7706 15.9308L52.7698 15.9298ZM49.5397 3.61252C50.3419 3.61252 50.9642 2.8953 50.9642 1.99217C50.9642 1.08904 50.3427 0.441656 49.5397 0.441656C48.7367 0.441656 48.0759 1.11263 48.0759 1.99217C48.0759 2.87171 48.7179 3.61252 49.5397 3.61252ZM48.1561 15.9289H50.8644C51.0648 15.9289 51.0852 15.7439 50.965 15.5354C50.8047 15.2579 50.624 14.586 50.624 13.2893V5.53769C50.624 5.09793 50.3836 4.88937 49.9625 4.93561L48.0563 5.19041C47.856 5.214 47.8355 5.37538 47.9557 5.58394C48.1561 5.93122 48.3973 6.67203 48.3973 7.82997V13.2941C48.3973 14.5907 48.2166 15.2617 48.0563 15.5401C47.9361 15.7486 47.9557 15.9336 48.1569 15.9336L48.1561 15.9289ZM40.9142 15.9279H43.6422C43.8425 15.9279 43.863 15.743 43.7428 15.5344C43.5825 15.257 43.4018 14.585 43.4018 13.2884V11.2972C43.4018 8.38015 44.7658 7.22316 46.0897 7.22316C46.3301 7.22316 46.5108 7.22316 46.7111 7.2694C46.8919 7.31565 46.9916 7.24581 46.9916 7.03819V5.02432C46.9916 4.81576 46.9115 4.70062 46.7512 4.67703C46.6106 4.65344 46.4503 4.65344 46.2696 4.65344C44.8655 4.65344 43.9627 5.74154 43.4811 7.75541H43.401V5.53298C43.401 5.09321 43.1605 4.88465 42.7394 4.93089L40.8136 5.18569C40.6133 5.20928 40.5928 5.37066 40.713 5.57922C40.9134 5.9265 41.1546 6.66732 41.1546 7.82525V13.2893C41.1546 14.586 40.9739 15.257 40.8136 15.5354C40.6934 15.7439 40.7131 15.9289 40.9134 15.9289L40.9142 15.9279ZM34.495 14.585C33.1114 14.585 32.2078 13.312 32.2078 11.066V9.67681C32.2078 7.82431 33.2708 6.55124 34.5751 6.55124C36.1002 6.55124 37.0627 8.10176 37.0627 10.4865C37.0627 12.8713 36.0601 14.5841 34.495 14.5841V14.585ZM29.7407 20.5578H32.449C32.6494 20.5578 32.6698 20.3728 32.5496 20.1643C32.3893 19.8868 32.2086 19.2149 32.2086 17.9182V14.8625H32.3092C32.911 15.7656 33.8539 16.2281 34.8572 16.2281C37.2843 16.2281 39.3703 13.9594 39.3703 10.278C39.3703 6.82869 37.4846 4.65249 35.2784 4.65249C33.9545 4.65249 32.9715 5.34706 32.3092 6.55124H32.2086V5.53298C32.2086 5.09321 31.9682 4.88465 31.547 4.93089L29.6409 5.18569C29.4406 5.20928 29.4201 5.37066 29.5403 5.57922C29.7407 5.9265 29.9819 6.66732 29.9819 7.82525V17.9192C29.9819 19.2158 29.8012 19.8868 29.6409 20.1652C29.5207 20.3738 29.5403 20.5587 29.7415 20.5587L29.7407 20.5578ZM23.2814 16.229C26.4305 16.229 28.3971 14.5624 28.3971 11.7379C28.3971 9.67681 27.0732 7.89508 25.0469 7.03819L23.1407 6.22849C21.8969 5.69624 21.4554 5.02526 21.4554 4.00605C21.4554 2.75564 22.498 1.8761 23.9429 1.8761C25.5277 1.8761 26.7919 2.6858 27.2327 3.95981C27.2932 4.12213 27.5132 4.07589 27.5132 3.88998V1.0881C26.711 0.463362 25.5678 0 23.983 0C20.9737 0 19.088 1.76002 19.088 4.37504C19.088 6.41251 20.0709 7.89414 21.8364 8.70384L23.642 9.53714C25.4279 10.3704 26.0093 11.0414 26.0093 12.2918C26.0093 13.5422 24.9463 14.3293 23.4016 14.3293C21.4357 14.3293 19.851 13.2648 19.2696 11.5973C19.209 11.4349 18.9891 11.4812 18.9891 11.6671V14.6539C19.7913 15.5108 21.4971 16.2281 23.2822 16.2281L23.2814 16.229ZM67.0131 20.8824C70.2423 20.8824 72.4698 19.1932 72.4698 16.8311C72.4698 15.0022 71.1664 14.0066 68.8996 14.0066H66.0105C65.268 14.0066 64.8673 13.6593 64.8673 13.127C64.8673 12.641 65.1879 12.2239 65.7096 11.9464C66.1913 12.155 66.7326 12.2475 67.3345 12.2475C69.6413 12.2475 71.1655 10.6271 71.1655 8.47358C71.1655 7.66388 70.845 6.99195 70.4639 6.62107V6.505L72.2695 6.52859C72.4502 6.52859 72.5909 6.36627 72.5909 6.11147V4.81481C72.5909 4.5836 72.4706 4.49112 72.2695 4.51377L68.8792 4.92995C68.3574 4.74498 67.8365 4.65249 67.314 4.65249C65.0072 4.65249 63.4028 6.15677 63.4028 8.47264C63.4028 9.65322 63.864 10.6488 64.6466 11.3198V11.3661C63.5434 12.037 63.0814 12.9864 63.0814 13.8669C63.0814 15.6958 64.6466 16.1592 65.4087 16.1592H68.7189C69.7819 16.1592 70.3036 16.5291 70.3036 17.386C70.3036 18.659 68.7786 19.3536 67.094 19.3536C65.4095 19.3536 64.8469 18.6364 64.5059 17.5474C64.3456 17.0151 64.0046 16.7377 63.5835 16.7377C63.0618 16.7377 62.6006 17.1548 62.6006 17.9881C62.6006 19.6084 64.2058 20.8824 67.0139 20.8824H67.0131Z" fill="white"/>
</svg>
