   <svg
          width="151"
          height="34"
          viewBox="0 0 151 34"
          fill="none"
          xmlns="http://www.w3.org/2000/svg"
        >
          <g clip-path="url(#clip0_367_9605)">
            <rect
              width="150"
              height="34"
              transform="translate(0.0234375)"
              fill="white"
            />
            <path
              d="M146.023 0H3.75344C2.76418 0 1.81544 0.392981 1.11593 1.09249C0.416419 1.792 0.0234375 2.74074 0.0234375 3.73L0.0234375 30.27C0.0234375 31.2593 0.416419 32.208 1.11593 32.9075C1.81544 33.607 2.76418 34 3.75344 34H146.023C147.084 34 148.102 33.5786 148.852 32.8284C149.602 32.0783 150.023 31.0609 150.023 30V4C150.023 2.93913 149.602 1.92172 148.852 1.17157C148.102 0.421427 147.084 0 146.023 0ZM149.023 30C149.023 30.7956 148.707 31.5587 148.145 32.1213C147.582 32.6839 146.819 33 146.023 33H3.75344C3.03021 32.9974 2.33735 32.7089 1.82595 32.1975C1.31454 31.6861 1.02607 30.9932 1.02344 30.27V3.73C1.02607 3.00677 1.31454 2.31391 1.82595 1.80251C2.33735 1.2911 3.03021 1.00263 3.75344 1H146.023C146.819 1 147.582 1.31607 148.145 1.87868C148.707 2.44129 149.023 3.20435 149.023 4V30Z"
              fill="black"
            />
            <path
              d="M17.093 11.2402H12.793V22.0002H14.713V17.8402H17.093C19.493 17.8402 20.993 16.6802 20.993 14.5402C20.993 12.4002 19.493 11.2402 17.093 11.2402ZM16.993 16.2402H14.713V12.9402H17.023C18.403 12.9402 19.133 13.5302 19.133 14.5902C19.133 15.6502 18.373 16.1902 17.023 16.1902L16.993 16.2402Z"
              fill="black"
            />
            <path
              d="M25.1236 14.0003C24.5979 13.9942 24.0767 14.0981 23.5935 14.3054C23.1104 14.5127 22.6759 14.8188 22.3181 15.2039C21.9602 15.5891 21.6869 16.0449 21.5156 16.5419C21.3443 17.039 21.2789 17.5664 21.3236 18.0903C21.2767 18.617 21.34 19.1477 21.5094 19.6486C21.6788 20.1496 21.9507 20.6098 22.3076 20.9999C22.6646 21.3901 23.0989 21.7016 23.5828 21.9148C24.0668 22.1279 24.5898 22.238 25.1186 22.238C25.6474 22.238 26.1704 22.1279 26.6544 21.9148C27.1383 21.7016 27.5726 21.3901 27.9295 20.9999C28.2865 20.6098 28.5584 20.1496 28.7278 19.6486C28.8972 19.1477 28.9605 18.617 28.9136 18.0903C28.9597 17.5669 28.8957 17.0397 28.7256 16.5427C28.5555 16.0456 28.2832 15.5897 27.9261 15.2044C27.569 14.819 27.1351 14.5128 26.6524 14.3054C26.1697 14.098 25.6489 13.994 25.1236 14.0003ZM25.1236 20.6703C23.9036 20.6703 23.1236 19.6703 23.1236 18.0903C23.1236 16.5103 23.8836 15.5103 25.1236 15.5103C26.3636 15.5103 27.1236 16.5103 27.1236 18.0903C27.1236 19.6703 26.3336 20.6603 25.1236 20.6603V20.6703Z"
              fill="black"
            />
            <path
              d="M36.8032 19.3509L35.3932 14.1309H33.9132L32.5132 19.3509L31.0932 14.1309H29.2432L31.6132 22.0109H33.1732L34.6132 16.8509L36.0532 22.0109H37.6132L39.9832 14.1309H38.2032L36.8032 19.3509Z"
              fill="black"
            />
            <path
              d="M44.0236 14C43.5048 14.0096 42.9933 14.1246 42.5203 14.3379C42.0472 14.5513 41.6224 14.8585 41.2717 15.241C40.921 15.6235 40.6517 16.0733 40.4802 16.563C40.3086 17.0528 40.2383 17.5723 40.2736 18.09C40.2318 18.6157 40.3002 19.1444 40.4744 19.6422C40.6486 20.14 40.9248 20.596 41.2853 20.9809C41.6458 21.3659 42.0826 21.6714 42.5679 21.8778C43.0532 22.0843 43.5763 22.1872 44.1036 22.18C44.8287 22.2191 45.5476 22.0297 46.1594 21.6386C46.7711 21.2476 47.2448 20.6744 47.5136 20L46.0236 19.38C45.9067 19.7664 45.6619 20.1016 45.3294 20.3306C44.9968 20.5595 44.5963 20.6686 44.1936 20.64C43.9068 20.6468 43.6216 20.5954 43.3552 20.4888C43.0888 20.3821 42.8469 20.2226 42.644 20.0197C42.4411 19.8168 42.2815 19.5748 42.1749 19.3085C42.0682 19.0421 42.0168 18.7568 42.0236 18.47H47.5436V17.87C47.5636 15.71 46.3436 14 44.0236 14ZM42.0936 17.13C42.1637 16.6708 42.3979 16.2526 42.7528 15.9529C43.1077 15.6532 43.5592 15.4923 44.0236 15.5C44.2443 15.4813 44.4664 15.5099 44.6752 15.5837C44.884 15.6576 45.0747 15.775 45.2345 15.9283C45.3944 16.0815 45.5198 16.2671 45.6024 16.4726C45.685 16.678 45.7229 16.8987 45.7136 17.12L42.0936 17.13Z"
              fill="black"
            />
            <path
              d="M50.7131 15.2995V14.1295H48.9131V21.9995H50.7131V17.8695C50.697 17.6026 50.7378 17.3355 50.8326 17.0855C50.9275 16.8356 51.0742 16.6087 51.2632 16.4196C51.4523 16.2306 51.6792 16.0839 51.9291 15.989C52.1791 15.8942 52.4463 15.8534 52.7131 15.8695C52.9328 15.8539 53.1534 15.8539 53.3731 15.8695V14.0695C53.2331 14.0695 53.0731 14.0695 52.8631 14.0695C52.4245 14.0467 51.9886 14.1506 51.6074 14.3687C51.2262 14.5868 50.9158 14.9099 50.7131 15.2995Z"
              fill="black"
            />
            <path
              d="M57.5031 14C56.9843 14.0096 56.4728 14.1246 55.9998 14.3379C55.5267 14.5513 55.1019 14.8585 54.7512 15.241C54.4005 15.6235 54.1312 16.0733 53.9597 16.563C53.7881 17.0528 53.7178 17.5723 53.7531 18.09C53.7113 18.6157 53.7797 19.1444 53.9539 19.6422C54.1281 20.14 54.4043 20.596 54.7648 20.9809C55.1253 21.3659 55.5621 21.6714 56.0474 21.8778C56.5327 22.0843 57.0558 22.1872 57.5831 22.18C58.3015 22.2106 59.0116 22.0172 59.6153 21.6267C60.219 21.2361 60.6865 20.6677 60.9531 20L59.4131 19.41C59.2962 19.7964 59.0514 20.1316 58.7189 20.3606C58.3863 20.5895 57.9858 20.6986 57.5831 20.67C57.3022 20.6674 57.0245 20.609 56.7663 20.4982C56.5081 20.3874 56.2745 20.2263 56.0791 20.0244C55.8837 19.8225 55.7304 19.5837 55.6281 19.322C55.5258 19.0603 55.4765 18.7809 55.4831 18.5H61.0231V17.9C61.0231 15.71 59.7831 14 57.5031 14ZM55.5731 17.13C55.6452 16.6744 55.8789 16.2599 56.2314 15.9624C56.584 15.6649 57.0319 15.5043 57.4931 15.51C57.7138 15.4913 57.9359 15.5199 58.1447 15.5937C58.3535 15.6676 58.5442 15.785 58.704 15.9383C58.8639 16.0915 58.9893 16.2771 59.0719 16.4826C59.1545 16.688 59.1924 16.9087 59.1831 17.13H55.5731Z"
              fill="black"
            />
            <path
              d="M67.5835 15C67.306 14.6744 66.9588 14.4154 66.5675 14.2423C66.1763 14.0692 65.7511 13.9864 65.3235 14C63.1135 14 61.8535 15.85 61.8535 18.09C61.8535 20.33 63.1135 22.18 65.3235 22.18C65.7514 22.1958 66.1773 22.114 66.5689 21.9407C66.9605 21.7675 67.3074 21.5073 67.5835 21.18V22H69.3835V11.24H67.5835V15ZM67.5835 18.35C67.6238 18.6351 67.6021 18.9256 67.5198 19.2016C67.4376 19.4775 67.2966 19.7325 67.1067 19.949C66.9168 20.1654 66.6824 20.3384 66.4195 20.4559C66.1566 20.5734 65.8715 20.6328 65.5835 20.63C64.2735 20.63 63.5835 19.63 63.5835 18.11C63.5835 16.59 64.2835 15.59 65.5835 15.59C66.6935 15.59 67.5835 16.4 67.5835 17.88V18.35Z"
              fill="black"
            />
            <path
              d="M79.3336 14C78.898 13.9809 78.4638 14.061 78.0636 14.2343C77.6634 14.4075 77.3079 14.6693 77.0236 15V11.24H75.2236V22H77.0236V21.17C77.3027 21.4964 77.6516 21.7558 78.0446 21.9289C78.4376 22.102 78.8645 22.1844 79.2936 22.17C81.4936 22.17 82.7536 20.31 82.7536 18.08C82.7536 15.85 81.5336 14 79.3336 14ZM79.0236 20.6C78.7357 20.6028 78.4505 20.5434 78.1876 20.4259C77.9247 20.3084 77.6903 20.1354 77.5004 19.919C77.3105 19.7025 77.1696 19.4475 77.0873 19.1716C77.005 18.8956 76.9833 18.6051 77.0236 18.32V17.85C77.0236 16.37 77.8636 15.56 79.0236 15.56C80.3236 15.56 81.0236 16.56 81.0236 18.08C81.0236 19.6 80.2736 20.6 79.0236 20.6Z"
              fill="black"
            />
            <path
              d="M86.953 19.6609L85.023 14.1309H83.123L86.023 21.7209L85.723 22.4609C85.6721 22.7144 85.5248 22.9383 85.3123 23.0856C85.0997 23.2329 84.8383 23.2921 84.583 23.2509C84.3833 23.2654 84.1828 23.2654 83.983 23.2509V24.7609C84.2247 24.7968 84.4688 24.8135 84.7131 24.8109C85.3374 24.8563 85.9578 24.6808 86.4659 24.3153C86.9741 23.9497 87.3376 23.4172 87.493 22.8109L90.733 14.1909H88.843L86.953 19.6609Z"
              fill="black"
            />
            <path
              d="M125.023 12.4297C124.628 12.4275 124.237 12.5031 123.872 12.6524C123.506 12.8017 123.174 13.0217 122.893 13.2997L122.753 12.6097H120.363V25.5297L123.083 24.9397V21.8097C123.624 22.2628 124.308 22.5106 125.013 22.5097C126.953 22.5097 128.733 20.9197 128.733 17.3997C128.733 14.1797 126.933 12.4297 125.023 12.4297ZM124.373 20.0597C124.135 20.0735 123.896 20.034 123.675 19.944C123.453 19.8541 123.255 19.716 123.093 19.5397V15.4297C123.255 15.2471 123.456 15.1029 123.681 15.0077C123.906 14.9126 124.149 14.8688 124.393 14.8797C125.393 14.8797 126.073 16.0097 126.073 17.4597C126.073 18.9097 125.383 20.0597 124.373 20.0597Z"
              fill="#635AFF"
            />
            <path
              d="M133.753 12.4297C131.133 12.4297 129.543 14.6897 129.543 17.5397C129.543 20.9097 131.423 22.6197 134.103 22.6197C135.149 22.6367 136.182 22.3854 137.103 21.8897V19.6397C136.266 20.0618 135.34 20.2745 134.403 20.2597C133.323 20.2597 132.403 19.8697 132.263 18.5597H137.643C137.643 18.4097 137.643 17.8197 137.643 17.5597C137.733 14.6897 136.373 12.4297 133.753 12.4297ZM132.283 16.4997C132.283 15.2397 133.053 14.7097 133.733 14.7097C134.413 14.7097 135.133 15.2397 135.133 16.4997H132.283Z"
              fill="#635AFF"
            />
            <path
              d="M113.023 13.36L112.853 12.54H110.533V22.25H113.213V15.67C113.455 15.3762 113.781 15.1632 114.148 15.0595C114.514 14.9559 114.903 14.9665 115.263 15.09V12.54C114.854 12.3798 114.4 12.3747 113.988 12.5257C113.575 12.6768 113.232 12.9735 113.023 13.36Z"
              fill="#635AFF"
            />
            <path
              d="M99.4834 15.46C99.4834 15.02 99.8434 14.85 100.413 14.85C101.358 14.8703 102.284 15.1172 103.113 15.57V12.94C102.256 12.5933 101.338 12.4199 100.413 12.43C98.2034 12.43 96.7334 13.61 96.7334 15.59C96.7334 18.69 100.873 18.19 100.873 19.52C100.873 20.04 100.433 20.21 99.8734 20.21C98.8169 20.1482 97.7894 19.84 96.8734 19.31V22C97.8175 22.4211 98.8396 22.6391 99.8734 22.64C102.133 22.64 103.693 21.49 103.693 19.48C103.643 16.12 99.4834 16.72 99.4834 15.46Z"
              fill="#635AFF"
            />
            <path
              d="M107.303 10.2402L104.653 10.8202V19.7502C104.64 20.1266 104.703 20.5017 104.839 20.8528C104.975 21.2039 105.182 21.5235 105.446 21.7921C105.709 22.0607 106.025 22.2727 106.374 22.4151C106.723 22.5575 107.097 22.6273 107.473 22.6202C108.13 22.6496 108.785 22.5228 109.383 22.2502V20.0002C109.033 20.1502 107.323 20.6602 107.323 19.0002V15.0002H109.383V12.6602H107.323L107.303 10.2402Z"
              fill="#635AFF"
            />
            <path
              d="M116.273 11.7007L119.003 11.1307V8.9707L116.273 9.5407V11.7007Z"
              fill="#635AFF"
            />
            <path
              d="M119.003 12.6094H116.273V22.2494H119.003V12.6094Z"
              fill="#635AFF"
            />
          </g>
          <defs>
            <clipPath id="clip0_367_9605">
              <rect
                width="150"
                height="34"
                fill="white"
                transform="translate(0.0234375)"
              />
            </clipPath>
          </defs>
        </svg>