<svg width="129" height="21" viewBox="0 0 129 21" fill="none" xmlns="http://www.w3.org/2000/svg">
<path d="M5.63981 10.1211L10.7742 20.2414H0.505371L5.63981 10.1211Z" fill="white"/>
<path d="M5.63981 0L10.7742 10.1203H0.505371L5.63981 0Z" fill="white"/>
<path d="M23.8492 5.51953C25.0275 5.51953 26.065 5.72879 26.9616 6.14731C27.871 6.5514 28.6587 7.15032 29.3248 7.94407L27.7301 10.347C27.1794 9.69753 26.5838 9.21407 25.9433 8.89657C25.3157 8.56464 24.5985 8.39867 23.7915 8.39867C23.3176 8.39867 22.9334 8.4564 22.6388 8.57185C22.3442 8.68731 22.1328 8.84606 22.0048 9.0481C21.8767 9.25015 21.8126 9.48106 21.8126 9.74083C21.8126 10.0439 21.9343 10.3037 22.1777 10.5201C22.4338 10.7222 22.8437 10.8954 23.4073 11.0397L25.5399 11.5809C26.8079 11.9128 27.7365 12.3963 28.3257 13.0313C28.9149 13.6663 29.2095 14.5105 29.2095 15.5641C29.2095 16.5743 28.9789 17.433 28.5178 18.1401C28.0567 18.8329 27.4227 19.3596 26.6158 19.7204C25.8089 20.0668 24.8867 20.2399 23.8492 20.2399C23.0038 20.2399 22.1969 20.1389 21.4284 19.9369C20.6599 19.7204 19.9682 19.4173 19.3534 19.0277C18.7386 18.638 18.2199 18.1906 17.7972 17.6855L19.3919 15.196C19.7121 15.6146 20.1027 15.9898 20.5638 16.3217C21.0377 16.6392 21.5501 16.8918 22.1008 17.0794C22.6644 17.267 23.2344 17.3608 23.8107 17.3608C24.259 17.3608 24.6305 17.3103 24.9251 17.2093C25.2325 17.1083 25.4566 16.9567 25.5975 16.7547C25.7384 16.5526 25.8089 16.3145 25.8089 16.0403C25.8089 15.7372 25.7128 15.4847 25.5207 15.2826C25.3285 15.0662 24.9635 14.8858 24.4255 14.7414L22.0816 14.157C21.3643 13.9693 20.7239 13.724 20.1604 13.4209C19.6096 13.1034 19.1741 12.6849 18.8539 12.1654C18.5337 11.6314 18.3736 10.9675 18.3736 10.1738C18.3736 9.27901 18.5913 8.48526 19.0268 7.79254C19.4623 7.08538 20.0899 6.52976 20.9096 6.12567C21.7294 5.72158 22.7092 5.51953 23.8492 5.51953ZM42.35 5.73601L37.8735 14.8064V20.0235H34.5689V14.8064L30.0924 5.73601H33.5122L35.299 9.65424L36.2404 12.0355L37.201 9.65424L38.9878 5.73601H42.35ZM55.6146 5.73601V20.0235H51.945L48.0064 12.2953L47.0458 10.1738H47.0266L47.1034 12.8148V20.0235H44.1831V5.73601H47.8527L51.7913 13.4642L52.7519 15.5857H52.7711L52.6943 12.9447V5.73601H55.6146ZM69.471 5.73601V8.61515H65.3403V20.0235H62.0357V8.61515H57.8858V5.73601H69.471ZM83.1952 5.73601V20.0235H79.8907V5.73601H83.1952ZM75.0488 5.73601V20.0235H71.7442V5.73601H75.0488ZM81.6582 11.3861V14.2652H73.3581V11.3861H81.6582ZM86.3877 20.0235V5.73601H96.263V8.61515H89.6923V11.5159H94.9181V14.2219H89.6923V17.1443H96.5127V20.0235H86.3877ZM103.85 5.51953C105.028 5.51953 106.065 5.72879 106.962 6.14731C107.871 6.5514 108.659 7.15032 109.325 7.94407L107.73 10.347C107.18 9.69753 106.584 9.21407 105.944 8.89657C105.316 8.56464 104.599 8.39867 103.792 8.39867C103.318 8.39867 102.934 8.4564 102.639 8.57185C102.345 8.68731 102.133 8.84606 102.005 9.0481C101.877 9.25015 101.813 9.48106 101.813 9.74083C101.813 10.0439 101.935 10.3037 102.178 10.5201C102.434 10.7222 102.844 10.8954 103.408 11.0397L105.54 11.5809C106.808 11.9128 107.737 12.3963 108.326 13.0313C108.915 13.6663 109.21 14.5105 109.21 15.5641C109.21 16.5743 108.979 17.433 108.518 18.1401C108.057 18.8329 107.423 19.3596 106.616 19.7204C105.809 20.0668 104.887 20.2399 103.85 20.2399C103.004 20.2399 102.197 20.1389 101.429 19.9369C100.66 19.7204 99.9686 19.4173 99.3538 19.0277C98.739 18.638 98.2203 18.1906 97.7976 17.6855L99.3922 15.196C99.7124 15.6146 100.103 15.9898 100.564 16.3217C101.038 16.6392 101.55 16.8918 102.101 17.0794C102.665 17.267 103.235 17.3608 103.811 17.3608C104.259 17.3608 104.631 17.3103 104.925 17.2093C105.233 17.1083 105.457 16.9567 105.598 16.7547C105.739 16.5526 105.809 16.3145 105.809 16.0403C105.809 15.7372 105.713 15.4847 105.521 15.2826C105.329 15.0662 104.964 14.8858 104.426 14.7414L102.082 14.157C101.365 13.9693 100.724 13.724 100.161 13.4209C99.61 13.1034 99.1745 12.6849 98.8543 12.1654C98.5341 11.6314 98.374 10.9675 98.374 10.1738C98.374 9.27901 98.5917 8.48526 99.0272 7.79254C99.4627 7.08538 100.09 6.52976 100.91 6.12567C101.73 5.72158 102.71 5.51953 103.85 5.51953ZM114.964 5.73601V20.0235H111.659V5.73601H114.964ZM123.117 5.51953C124.296 5.51953 125.333 5.72879 126.23 6.14731C127.139 6.5514 127.927 7.15032 128.593 7.94407L126.998 10.347C126.448 9.69753 125.852 9.21407 125.212 8.89657C124.584 8.56464 123.867 8.39867 123.06 8.39867C122.586 8.39867 122.202 8.4564 121.907 8.57185C121.612 8.68731 121.401 8.84606 121.273 9.0481C121.145 9.25015 121.081 9.48106 121.081 9.74083C121.081 10.0439 121.202 10.3037 121.446 10.5201C121.702 10.7222 122.112 10.8954 122.675 11.0397L124.808 11.5809C126.076 11.9128 127.005 12.3963 127.594 13.0313C128.183 13.6663 128.478 14.5105 128.478 15.5641C128.478 16.5743 128.247 17.433 127.786 18.1401C127.325 18.8329 126.691 19.3596 125.884 19.7204C125.077 20.0668 124.155 20.2399 123.117 20.2399C122.272 20.2399 121.465 20.1389 120.697 19.9369C119.928 19.7204 119.236 19.4173 118.622 19.0277C118.007 18.638 117.488 18.1906 117.065 17.6855L118.66 15.196C118.98 15.6146 119.371 15.9898 119.832 16.3217C120.306 16.6392 120.818 16.8918 121.369 17.0794C121.933 17.267 122.503 17.3608 123.079 17.3608C123.527 17.3608 123.899 17.3103 124.193 17.2093C124.501 17.1083 124.725 16.9567 124.866 16.7547C125.007 16.5526 125.077 16.3145 125.077 16.0403C125.077 15.7372 124.981 15.4847 124.789 15.2826C124.597 15.0662 124.232 14.8858 123.694 14.7414L121.35 14.157C120.633 13.9693 119.992 13.724 119.429 13.4209C118.878 13.1034 118.442 12.6849 118.122 12.1654C117.802 11.6314 117.642 10.9675 117.642 10.1738C117.642 9.27901 117.86 8.48526 118.295 7.79254C118.73 7.08538 119.358 6.52976 120.178 6.12567C120.998 5.72158 121.977 5.51953 123.117 5.51953Z" fill="white"/>
</svg>
