<svg width="118" height="17" viewBox="0 0 118 17" fill="none" xmlns="http://www.w3.org/2000/svg">
<path d="M100.659 6.91467V16.1735H103.618V10.001H114.441V16.1735H117.401V6.91467H100.659ZM103.28 3.91294H114.695C116.302 3.617 117.443 2.17955 117.781 0.82666H100.194C100.532 2.17955 101.716 3.57472 103.28 3.91294ZM91.6536 16.1735C93.1333 15.5394 93.9366 14.4401 94.2748 13.1718H80.9573V0.868938H77.9555V16.1735H91.6536ZM55.7597 3.87067H66.3291C67.9357 3.40561 69.2463 2.17955 69.5845 0.868938H52.8425V9.9164H66.5405V13.0872H55.8019C54.1108 13.5523 52.6734 14.6938 51.9547 16.1735H69.5V6.91467H55.8019L55.7597 3.87067ZM29.7165 3.91294H41.1315C42.7381 3.617 43.9219 2.17955 44.2178 0.82666H26.588C26.9262 2.17955 28.11 3.57472 29.7165 3.91294ZM29.7165 9.95868H41.1315C42.7381 9.66273 43.9219 8.22528 44.2178 6.87239H26.588C26.9262 8.22528 28.11 9.62045 29.7165 9.95868ZM29.7165 16.1735H41.1315C42.7381 15.8776 43.9219 14.4401 44.2178 13.0872H26.588C26.9262 14.4401 28.11 15.8776 29.7165 16.1735Z" fill="white"/>
<path d="M0 0.868938C0.338223 2.22183 1.522 3.57472 3.08628 3.91294H7.90596L8.15963 3.9975V16.1312H11.1614V3.9975L11.415 3.91294H16.2347C17.8413 3.49016 18.9828 2.22183 19.321 0.868938V0.82666L0 0.868938Z" fill="white"/>
</svg>
