<svg width="113" height="33" viewBox="0 0 113 33" fill="none" xmlns="http://www.w3.org/2000/svg">
<path d="M110.091 19.7013C110.027 20.0193 109.916 20.2895 109.765 20.5279C109.614 20.766 109.415 20.9571 109.162 21.1078C108.915 21.2511 108.605 21.3303 108.24 21.3303C107.882 21.3303 107.572 21.2589 107.326 21.1078C107.08 20.964 106.871 20.7656 106.714 20.5279C106.563 20.2897 106.452 20.0193 106.38 19.7013C106.31 19.3856 106.276 19.0632 106.277 18.7399C106.277 18.4062 106.309 18.0723 106.373 17.7628C106.436 17.4448 106.547 17.1667 106.698 16.9284C106.849 16.6817 107.048 16.4913 107.302 16.3325C107.549 16.1814 107.858 16.102 108.224 16.102C108.581 16.102 108.883 16.1814 109.13 16.3325C109.376 16.4852 109.585 16.6915 109.742 16.9362C109.9 17.1824 110.012 17.4684 110.083 17.7785C110.154 18.0963 110.186 18.414 110.186 18.7399C110.186 19.0657 110.154 19.3835 110.091 19.7013ZM112.205 17.1349C112.054 16.6025 111.831 16.1417 111.529 15.7364C111.219 15.3393 110.838 15.0132 110.377 14.7751C109.916 14.5367 109.36 14.4095 108.716 14.4095C108.208 14.4095 107.747 14.5129 107.326 14.7116C106.904 14.9103 106.555 15.2359 106.285 15.673H106.253V14.632H104.123V25.653H106.364V21.783H106.396C106.66 22.1718 107.022 22.4843 107.445 22.689C107.874 22.8956 108.335 22.9989 108.843 22.9989C109.439 22.9989 109.964 22.8799 110.417 22.6493C110.854 22.4254 111.236 22.108 111.537 21.7196C111.839 21.3303 112.061 20.8851 112.205 20.3767C112.356 19.8681 112.427 19.344 112.427 18.7955C112.427 18.2156 112.356 17.6594 112.205 17.1268V17.1349ZM101.152 19.7013C101.088 20.0193 100.977 20.2895 100.826 20.5279C100.675 20.7663 100.476 20.9571 100.222 21.1078C99.9759 21.2511 99.666 21.3303 99.3006 21.3303C98.9427 21.3303 98.6411 21.2589 98.3866 21.1078C98.1409 20.9639 97.9315 20.7655 97.7746 20.5279C97.6239 20.2897 97.5127 20.0193 97.4413 19.7013C97.3711 19.3857 97.3364 19.0632 97.338 18.7399C97.338 18.4062 97.3696 18.0723 97.433 17.7628C97.497 17.4448 97.6077 17.1667 97.7589 16.9284C97.91 16.6817 98.1085 16.4913 98.3628 16.3325C98.609 16.1814 98.919 16.102 99.2843 16.102C99.6422 16.102 99.9438 16.1814 100.19 16.3325C100.437 16.4851 100.646 16.6915 100.802 16.9362C100.961 17.1824 101.072 17.4684 101.144 17.7785C101.215 18.0963 101.247 18.414 101.247 18.7399C101.247 19.0657 101.215 19.3835 101.152 19.7013ZM102.59 15.7364C102.288 15.3393 101.899 15.0132 101.438 14.7751C100.977 14.5367 100.421 14.4095 99.777 14.4095C99.2683 14.4095 98.8077 14.5129 98.3864 14.7116C97.9654 14.9103 97.6158 15.2359 97.3456 15.673H97.3135V14.632H95.184V25.653H97.4248V21.783H97.4568C97.721 22.1718 98.0828 22.4843 98.5059 22.689C98.9347 22.8956 99.3955 22.9989 99.9039 22.9989C100.508 22.9989 101.024 22.8799 101.478 22.6493C101.915 22.4253 102.297 22.1078 102.598 21.7196C102.9 21.3303 103.122 20.8851 103.274 20.3767C103.42 19.8624 103.495 19.3303 103.496 18.7955C103.496 18.2156 103.424 17.6594 103.274 17.1268C103.122 16.5947 102.9 16.1336 102.59 15.7286V15.7364ZM87.8419 18.438L89.3119 14.2981H89.3437L90.7662 18.438H87.8419ZM88.0803 11.5171L83.8134 22.7922H86.3084L87.1907 20.2814H91.4098L92.2599 22.7922H94.8344L90.6153 11.5171H88.0724H88.0803ZM83.6306 19.2167C83.4795 18.9623 83.2889 18.7399 83.0426 18.5652C82.8042 18.3905 82.5259 18.2551 82.216 18.144C81.902 18.0409 81.5839 17.9508 81.2625 17.874C80.9447 17.8023 80.6348 17.7307 80.3327 17.6673C80.0307 17.6038 79.7526 17.5321 79.5223 17.4527C79.2841 17.3733 79.0933 17.2701 78.9502 17.1427C78.799 17.0156 78.7277 16.8568 78.7277 16.6503C78.7277 16.4834 78.7674 16.3482 78.8547 16.2448C78.9421 16.1417 79.0455 16.0701 79.1646 16.0145C79.2839 15.9589 79.4189 15.9271 79.57 15.9114C79.7072 15.8962 79.8451 15.8882 79.9831 15.8876C80.3805 15.8876 80.7301 15.967 81.0243 16.1179C81.3183 16.2688 81.4852 16.5628 81.5089 16.9918H83.6385C83.5985 16.4832 83.4638 16.0701 83.2492 15.7362C83.0345 15.4023 82.7645 15.1404 82.4387 14.9417C82.1129 14.743 81.7395 14.6001 81.3262 14.5127C80.9131 14.4252 80.4839 14.3855 80.0389 14.3855C79.5942 14.3855 79.165 14.4254 78.7439 14.5046C78.3227 14.584 77.9415 14.7192 77.6078 14.9179C77.2663 15.1166 76.9958 15.379 76.7973 15.7124C76.5906 16.0461 76.4874 16.4834 76.4874 17.0075C76.4874 17.3652 76.5587 17.6671 76.7099 17.9133C76.853 18.16 77.0514 18.3663 77.2898 18.5331C77.5363 18.6921 77.8065 18.8273 78.1164 18.9305C78.4263 19.0337 78.7441 19.1213 79.0699 19.1927C79.8726 19.3595 80.4924 19.5264 80.9452 19.6932C81.3901 19.86 81.6128 20.1143 81.6128 20.448C81.6128 20.6467 81.565 20.8136 81.4697 20.9486C81.3764 21.0805 81.254 21.1892 81.112 21.2663C80.9689 21.3457 80.8099 21.4016 80.6352 21.441C80.471 21.4784 80.3031 21.497 80.1347 21.4967C79.9122 21.4967 79.6976 21.4731 79.4989 21.4173C79.2924 21.3617 79.1096 21.2818 78.9509 21.1708C78.7919 21.0596 78.6647 20.9165 78.5616 20.7418C78.4582 20.5671 78.4104 20.3604 78.4104 20.122H76.2809C76.3047 20.6701 76.4242 21.123 76.6545 21.4886C76.877 21.8543 77.1709 22.1403 77.5206 22.3627C77.8702 22.5852 78.2754 22.744 78.7284 22.8393C79.1814 22.9348 79.642 22.9826 80.1188 22.9826C80.5799 22.9826 81.0405 22.9348 81.4856 22.8471C81.9305 22.7599 82.3279 22.6009 82.6775 22.3784C83.0271 22.156 83.3052 21.862 83.5198 21.5043C83.7342 21.139 83.8454 20.694 83.8454 20.1536C83.8454 19.7724 83.7741 19.4546 83.623 19.2001L83.6306 19.2167ZM74.3575 12.1847H72.1167V14.632H70.7577V16.1336H72.1167V20.949C72.1167 21.3623 72.188 21.6882 72.3232 21.9422C72.4585 22.1968 72.6491 22.3872 72.8875 22.5305C73.1258 22.6655 73.3963 22.7608 73.706 22.8085C74.0322 22.8571 74.3616 22.8809 74.6914 22.8799C74.9138 22.8799 75.1363 22.872 75.3747 22.8642C75.5851 22.857 75.7948 22.8358 76.0024 22.8005V21.0603C75.8927 21.085 75.7811 21.1009 75.6689 21.1078C75.5473 21.1173 75.4254 21.1226 75.3034 21.1237C74.9219 21.1237 74.6754 21.0603 74.5485 20.9329C74.4214 20.8059 74.3577 20.5514 74.3577 20.1783V16.1336H76.0024V14.632H74.3577V12.1847H74.3575ZM67.929 19.6378C67.929 19.7647 67.9133 19.9318 67.8893 20.1464C67.8625 20.3659 67.7894 20.5772 67.6747 20.7663C67.5556 20.973 67.3807 21.1477 67.1344 21.2989C66.8963 21.4496 66.5464 21.5213 66.1096 21.5213C65.9347 21.5213 65.7597 21.5052 65.585 21.4736C65.4182 21.4415 65.2673 21.3859 65.1401 21.3067C65.013 21.2271 64.9177 21.1239 64.8381 20.9809C64.7667 20.8459 64.7268 20.679 64.7268 20.4723C64.7268 20.2576 64.7667 20.0908 64.8381 19.948C64.9096 19.8125 65.0128 19.7013 65.1323 19.6062C65.2514 19.5187 65.3944 19.4474 65.5613 19.3918C65.7281 19.3362 65.8871 19.2963 66.0618 19.2644C66.2412 19.2336 66.4213 19.2071 66.602 19.185C66.7848 19.1613 66.9519 19.1373 67.1187 19.1056C67.2856 19.074 67.4365 19.0341 67.5796 18.9866C67.7226 18.939 67.8417 18.8753 67.9373 18.7879V19.6223L67.929 19.6378ZM70.1697 20.9806V16.7294C70.1697 16.237 70.0585 15.8396 69.8362 15.5378C69.6138 15.2357 69.3274 15.0054 68.9859 14.8385C68.6363 14.6717 68.2548 14.5605 67.8337 14.497C67.4203 14.4405 67.0036 14.4113 66.5863 14.4095C66.1331 14.4095 65.6804 14.4573 65.2354 14.5448C64.7907 14.6322 64.3853 14.7829 64.0276 14.9977C63.6755 15.2072 63.3743 15.4922 63.1456 15.8322C62.9153 16.1818 62.7801 16.6187 62.7485 17.1432H64.9892C65.0289 16.6985 65.1798 16.3886 65.4339 16.1977C65.6884 16.0069 66.03 15.9118 66.4751 15.9118C66.6738 15.9118 66.8642 15.9275 67.0393 15.9515C67.2021 15.9729 67.3589 16.027 67.5002 16.1105C67.6354 16.1899 67.7386 16.3011 67.8182 16.4442C67.8976 16.5873 67.9373 16.7777 67.9373 17.0241C67.9451 17.2544 67.8816 17.4296 67.7305 17.5565C67.5796 17.6756 67.3809 17.7711 67.1268 17.8346C66.8727 17.898 66.5866 17.9458 66.2607 17.9776C65.9349 18.0095 65.6012 18.0492 65.2675 18.1048C64.9338 18.1604 64.5999 18.2317 64.2662 18.3192C63.9325 18.4066 63.6383 18.5416 63.384 18.7246C63.1218 18.9072 62.9153 19.1456 62.7485 19.4396C62.5816 19.7416 62.502 20.1231 62.502 20.5839C62.502 21.0051 62.5733 21.3706 62.7166 21.6725C62.8507 21.9668 63.0521 22.2254 63.3046 22.4275C63.567 22.6316 63.8666 22.7827 64.1866 22.8725C64.5203 22.9678 64.8858 23.0153 65.2751 23.0153C65.7837 23.0153 66.2764 22.944 66.761 22.7928C67.2404 22.6465 67.675 22.3815 68.0245 22.0223C68.0323 22.1573 68.0563 22.2921 68.0801 22.4275C68.1039 22.5545 68.1436 22.6897 68.1835 22.8168H70.4561C70.3527 22.65 70.2733 22.3955 70.2336 22.0618C70.1916 21.7111 70.1703 21.3583 70.1699 21.0051V20.9806H70.1697ZM60.9367 15.3391C60.7142 15.0531 60.4122 14.8226 60.0309 14.6636C59.6495 14.4968 59.157 14.4172 58.5529 14.4172C58.1317 14.4172 57.7027 14.5284 57.2578 14.743C56.8129 14.9576 56.4552 15.3072 56.1693 15.7759H56.1215V11.5249H53.8807V22.8002H56.1215V18.5174C56.1215 17.683 56.2567 17.0871 56.5348 16.7216C56.805 16.3561 57.2499 16.1814 57.8617 16.1814C58.3941 16.1814 58.7756 16.3482 58.9821 16.6817C59.1889 17.0154 59.3001 17.5161 59.3001 18.1914V22.8002H61.5408V17.7785C61.5408 17.2699 61.4931 16.8093 61.4056 16.396C61.3182 15.9827 61.1592 15.6252 60.9367 15.3391ZM49.0891 19.2963H49.0572L47.1345 11.5252H44.8141L42.8593 19.201H42.8274L41.0395 11.5252H38.5605L41.5481 22.8005H44.0591L45.9343 15.1245H45.9661L47.8732 22.8005H50.3364L51.6871 17.7944L53.3717 11.5252H50.9401L49.0891 19.2963Z" fill="white"/>
<path d="M17.5464 29.5911C14.8049 29.5911 12.2463 28.7647 10.109 27.3584L4.91208 29.0188L6.59668 23.9971C4.97577 21.772 4.02246 19.0307 4.02246 16.0748C4.02246 8.62148 10.0852 2.55875 17.5385 2.55875C24.9919 2.55875 31.0546 8.62148 31.0546 16.0748C31.0546 23.5279 24.9919 29.5909 17.5385 29.5909H17.5464V29.5911ZM17.5464 0C8.67036 0 1.47156 7.19948 1.47156 16.075C1.47156 19.1103 2.31386 21.955 3.77578 24.3785L0.875488 33L9.77527 30.1475C12.154 31.4628 14.8282 32.1519 17.5464 32.1498C26.4222 32.1498 33.6212 24.9508 33.6212 16.075C33.621 7.19948 26.4222 0 17.5464 0Z" fill="#FEFEFE"/>
<path d="M13.7706 9.41792C13.5085 8.79023 13.3098 8.76646 12.9126 8.75032C12.7618 8.7406 12.6107 8.73537 12.4596 8.73462C11.9429 8.73462 11.4027 8.88554 11.0769 9.21923C10.6797 9.62446 9.69434 10.5699 9.69434 12.5088C9.69434 14.4477 11.1087 16.323 11.2993 16.5853C11.498 16.8473 14.0568 20.8839 18.0297 22.529C21.1365 23.8162 22.0584 23.6969 22.7655 23.546C23.7984 23.3235 25.0937 22.5604 25.4195 21.6389C25.7454 20.717 25.7454 19.9303 25.6498 19.7635C25.5545 19.5966 25.2922 19.5015 24.895 19.3026C24.4978 19.1039 22.5668 18.1504 22.2013 18.0233C21.8436 17.8883 21.502 17.936 21.232 18.3175C20.8506 18.8499 20.4772 19.3903 20.1751 19.7159C19.9367 19.9702 19.5472 20.0021 19.2216 19.8669C18.7845 19.6843 17.561 19.2549 16.0511 17.912C14.8829 16.8713 14.0884 15.5762 13.8581 15.1869C13.6275 14.7897 13.8343 14.559 14.0168 14.3446C14.2155 14.0981 14.4062 13.9234 14.6048 13.6929C14.8035 13.4626 14.9148 13.3433 15.0419 13.0731C15.1771 12.8109 15.0816 12.5407 14.9863 12.342C14.891 12.1433 14.0965 10.2044 13.7706 9.41792Z" fill="#FEFEFE"/>
</svg>
